<svg xmlns="http://www.w3.org/2000/svg" xmlns:xlink="http://www.w3.org/1999/xlink" version="1.1" id="Layer_1" x="0px" y="0px" width="240" height="150" viewBox="0 0 240 150" enable-background="new 0 0 240 150" xml:space="preserve">
<g>
	<rect x="33.828" y="87.503" fill="#154273" width="0.654" height="1.814"/>
	<path fill="#154273" d="M30.581,88.376c0.292-0.202,0.675-0.162,0.61,0.214c0,0-0.063,0.08-0.424,0.08c0,0,0.016,0.129,0.048,0.168   c0,0-0.084,0.102-0.026,0.197c0,0,0.321-0.161,0.497-0.114c0.074,0.179,0.008,0.417-0.508,0.5   c-0.646,0.102-0.997,0.286-1.067,0.988c0.502-0.038,0.818,0.2,1.207,0.387c0.586,0.272,1.232-0.109,1.232-0.111   c-0.142-0.128-0.175-0.502,0.058-0.678c0.123,0.237,0.387,0.266,0.557,0.142c0.018-0.013,0.015-0.033,0-0.042   c-0.284-0.153-0.315-0.413-0.183-0.691c0.148,0.215,0.473,0.049,0.507-0.134c0.002-0.011-0.008-0.014-0.019-0.009   c-0.218,0.069-0.318-0.17-0.318-0.333c0-0.145,0.111-0.666-0.125-1.019c0.068-0.114,0.479-0.292,0.608-0.314   c0.039-0.006,0.041-0.037-0.003-0.056c-0.172-0.075-0.567,0.008-0.635-0.076c0,0-0.072-0.571-0.097-0.585   c-0.025-0.015-0.536,0.253-0.536,0.253c-0.107-0.007-0.266-0.378-0.425-0.479c-0.04-0.025-0.065-0.005-0.048,0.031   c0.056,0.118,0.144,0.558,0.09,0.679c-0.454-0.041-0.61,0.132-0.637,0.257c-0.11,0.027-0.539,0.268-0.539,0.356   c0,0.027,0.025,0.09,0.065,0.11C30.467,88.098,30.445,88.257,30.581,88.376z M31.39,87.795c-0.141,0.276-0.332,0.294-0.476,0.142   C30.904,87.843,31.094,87.777,31.39,87.795z"/>
	<path fill="#154273" d="M21.841,85.193c-0.021-0.229-0.251-0.283-0.785-0.255C21.158,85.417,21.582,85.482,21.841,85.193z"/>
	<path fill="#154273" d="M27.581,89.473l-0.267,0.365c-0.058,0.079,0.221,0.283,0.279,0.204l0.35-0.478c0,0,1.126,0.604,1.408,0.777   c0.017-0.236,0.102-0.454,0.237-0.634c-0.349-0.097-1.055-0.326-1.055-0.326c-0.034,0.056-0.153,0.103-0.234,0.103   c-0.181,0-0.302-0.203-0.333-0.271c-0.003-0.008-0.002-0.013,0.009-0.008c0.048,0.021,0.174,0.076,0.212,0.024l0.143-0.197   l0.318,0.149l0.149-0.21l-0.27-0.089l1.279-1.797c0.031-0.045,0.021-0.312,0.01-0.41c-0.097,0.02-0.354,0.095-0.387,0.139   l-1.301,1.781l-0.169-0.229l-0.151,0.209l0.242,0.254l-0.12,0.164c-0.274-0.162-0.52,0.036-0.602,0.123   c-0.008,0.01-0.005,0.014,0.004,0.012c0.079-0.021,0.38-0.086,0.379,0.115c-0.332-0.1-0.464,0.122-0.498,0.194   c-0.008,0.014,0,0.018,0.008,0.016C27.28,89.438,27.492,89.38,27.581,89.473z"/>
	<path fill="#154273" d="M40.704,84.938c-0.535-0.028-0.764,0.025-0.786,0.255C40.177,85.482,40.601,85.417,40.704,84.938z"/>
	<path fill="#154273" d="M29.76,88.368c-0.007-0.032-0.035-0.032-0.045,0.003c-0.075,0.272,0.124,0.457,0.307,0.457   c0.278,0,0.298-0.2,0.734-0.257c0.038-0.005,0.039-0.055,0.005-0.065c-0.024-0.007-0.254-0.032-0.463,0.021   C29.958,88.613,29.788,88.486,29.76,88.368z"/>
	<path fill="#154273" d="M31.206,93.164c0.02-0.006,0.017-0.026-0.005-0.021c-0.184,0.036-0.428-0.252-0.182-0.552   c-0.163-0.114-0.366-0.2-0.524-0.201c-0.715,0-1.252,0.78-1.353,0.893c-0.092,0.104-0.279,0.283-0.393,0.125   c-0.014-0.021-0.022-0.019-0.022,0.007c0,0.321,0.262,0.324,0.364,0.267c0.01-0.006,0.017-0.005,0.015,0.009   c-0.041,0.331,0.164,0.885,0.169,0.899c-0.029,0.031-0.331,0.318-0.543,0.318c-0.143,0-0.169-0.274-0.387-0.274   c-0.068,0-0.135,0.033-0.205,0.107c-0.008,0.01-0.005,0.022,0.015,0.022c0.166,0.008,0.262,0.107,0.225,0.255   c-0.204-0.171-0.514-0.144-0.507,0.247c0,0.019,0.014,0.025,0.025,0.011c0.145-0.21,0.371-0.058,0.393-0.035   c-0.15,0.023-0.408,0.194-0.177,0.51c0.009,0.013,0.015,0.008,0.016-0.005c0.005-0.068,0.039-0.238,0.243-0.238   c0.216,0,0.36,0.191,0.525-0.009c0.065,0.265,0.344,0.24,0.423,0.226c0.007-0.001,0.012-0.008,0.003-0.013   c-0.124-0.083-0.166-0.171-0.166-0.237c0-0.173,0.353-0.381,0.46-0.381c0.106,0,0.142,0.107,0.338,0.107   c0.084,0,0.186-0.034,0.273-0.138c0.013-0.015,0.008-0.022-0.011-0.019c-0.243,0.055-0.384-0.174-0.384-0.588   C29.836,93.663,30.259,93.521,31.206,93.164z"/>
	<path fill="#154273" d="M26.79,91.896l0.429,0.188l0.031-0.046l0.37,0.096c-0.098,0.104-0.061,0.249-0.044,0.301   c0.002,0.007,0.011,0.01,0.017,0.001c0.033-0.053,0.15-0.206,0.359-0.198c0.015,0,0.016,0.006,0.007,0.011   c-0.072,0.036-0.306,0.18-0.227,0.462c0.003,0.011,0.017,0.014,0.023,0.004c0.09-0.129,0.259-0.188,0.326-0.21l-0.066,0.499   c0.385,0.107,0.803-0.147,0.844-0.583l-0.43-0.098c0.462-0.337,1.085-0.563,1.665-0.563c0.917,0,1.505,0.988,1.505,1.577   c0,0.147-0.016,0.364-0.128,0.526c-0.17,0.247-0.3,0.192-0.36,0.131c-0.016-0.016-0.026-0.014-0.02,0.012   c0.076,0.318,0.488,0.308,0.538,0.146c0.013-0.041,0.032-0.028,0.036-0.012c0.211,0.758,1.157-0.052,1.643,0.916   c-0.021,0.011-0.263,0.138-0.402,0.051c-0.273-0.177-0.423-0.002-0.473,0.117c-0.008,0.018,0,0.023,0.014,0.021   c0.301-0.062,0.421,0.128,0.438,0.183c-0.229-0.097-0.547,0.016-0.402,0.403c0.008,0.02,0.021,0.019,0.028-0.002   c0.098-0.27,0.328-0.174,0.351-0.16c-0.134,0.064-0.326,0.325,0.007,0.547c0.013,0.01,0.024,0.004,0.021-0.012   c-0.033-0.192,0.06-0.335,0.2-0.335c0.078,0,0.281,0.007,0.379-0.23c0.133,0.229,0.406,0.144,0.534,0.097   c0.021-0.009,0.022-0.027-0.004-0.035c-0.174-0.051-0.405-0.172-0.213-0.306c0,0,0.365,0.134,0.502-0.222   c0.008-0.021,0-0.032-0.019-0.021c-0.018,0.009-0.38,0.199-0.464-0.143c-0.056-0.229-0.09-0.61-0.279-0.695   c0.206-0.086,0.279-0.256,0.118-0.478c-0.011-0.016-0.031-0.037-0.032-0.002c-0.026,0.521-1.112,0.088-1.138-0.64   c0.765,0.192,1.526,0.008,1.526-0.761c0-0.739-0.714-1.064-0.714-1.422c0-0.249,0.215-0.311,0.323-0.311   c0.293,0,0.626,0.351,0.688,0.634c0.003,0.016,0.02,0.02,0.032,0.003c0.103-0.151,0.122-0.387,0.036-0.458   c-0.021-0.016,0-0.048,0.03-0.027c0.071,0.05,0.648-0.002,0.648-0.399c0-0.134-0.042-0.216-0.033-0.275   c0.007-0.049-0.07-0.07-0.096-0.006c-0.032,0.083-0.092,0.29-0.376,0.29c-0.239,0-0.654-0.122-0.937-0.122   c-0.536,0-0.731,0.402-0.731,0.683c0,0.626,0.655,0.742,0.655,1.342c0,0.446-0.63,0.588-1.077,0.166   c-0.113-0.521-0.216-0.897-0.508-1.331c-1.161,0.372-1.389-0.363-2.016-0.363c-0.527,0-1.215,0.943-1.767,1.073l0.078-0.558   l0.062-0.012l-0.016-0.462c0,0-0.125,0.3-0.143,0.344c-0.015,0.036-0.036,0.033-0.048,0.006c-0.059-0.138-0.177-0.407-0.177-0.407   s-0.007,0.366-0.009,0.445c0,0.027-0.021,0.034-0.038,0.011l-0.278-0.406c0,0,0.068,0.316,0.105,0.486   c0.005,0.023-0.015,0.033-0.032,0.017l-0.379-0.357c0,0,0.105,0.257,0.197,0.486c0.009,0.022-0.009,0.038-0.031,0.021   c-0.07-0.047-0.416-0.278-0.416-0.278s0.163,0.237,0.283,0.414c0.014,0.019,0.003,0.04-0.025,0.03   c-0.249-0.094-0.424-0.158-0.424-0.158s0.153,0.149,0.328,0.321c0.019,0.018,0.017,0.041-0.02,0.041   C27.106,91.894,26.79,91.896,26.79,91.896z"/>
	<path fill="#154273" d="M12.077,114.391h37.605V35.118H12.077V114.391z M24.916,102.974c0,1.428-2.352,0.088-4.622-0.057   c-1.885-0.123-2.411,0.358-2.411,0.358l0.346-1.906c0.019-0.103,0.426-0.396,1.725-0.396c1.564,0,2.348,0.3,2.634,0.4v1   c0,0.228,0.114,0.34,0.288,0.41c0-0.085,0.261-0.65,2.04-0.65V102.974z M22.808,95.426c-0.25-0.215-1.352-0.632-1.958-0.863   c-0.032-0.013-0.029-0.035,0-0.042c0.167-0.047,0.331-0.148,0.353-0.354c0.015-0.129-0.013-0.305-0.158-0.39   c0.299-0.324,0.893-0.551,1.206-0.551c1.199,0,2.216,1.624,2.703,1.624c0.061,0,0.14-0.022,0.211-0.126   c0.017-0.022,0.033-0.024,0.033,0.013c0,0.49-0.26,0.534-0.399,0.534c-0.078,0.001-0.162-0.024-0.222-0.059   c-0.016-0.009-0.024-0.001-0.024,0.017c0,0.019,0.004,0.068,0.004,0.102c0,0.578-0.604,1.21-0.604,1.21   c0.272,0.284,0.955,0.762,1.146,0.508c0.082-0.104,0.439-0.746,0.917-0.234c0.017,0.02,0.005,0.041-0.027,0.041   c-0.27,0-0.479,0.183-0.406,0.461c0.387-0.309,0.921-0.259,0.921,0.454c0,0.029-0.028,0.035-0.042,0.015   c-0.255-0.366-0.659-0.118-0.718-0.065c0.271,0.041,0.741,0.358,0.328,0.922c-0.018,0.025-0.034,0.02-0.036,0   c-0.042-0.37-0.268-0.434-0.452-0.434c-0.378,0-0.655,0.349-0.944-0.021c-0.104,0.483-0.641,0.438-0.771,0.416   c-0.017-0.003-0.019-0.017-0.008-0.024c0.169-0.109,0.3-0.262,0.3-0.429c0-0.3-0.574-0.692-0.848-0.692   c-0.163,0-0.28,0.195-0.595,0.195c-0.163,0-0.353-0.066-0.509-0.263c-0.012-0.016-0.005-0.027,0.014-0.024   c0.13,0.021,0.485,0.108,0.65-0.531C23.046,96.165,23.104,95.681,22.808,95.426z M23.027,102.011   c-0.039,0.043-0.055-0.001-0.055-0.034l-0.001-1.938c0-0.564,3.83-0.894,7.908-0.894c4.078,0,7.908,0.329,7.908,0.894l-0.001,1.938   c0,0.033-0.016,0.077-0.055,0.034c-0.485-0.552-4.197-0.743-7.852-0.743C27.224,101.268,23.513,101.459,23.027,102.011z    M35.769,96.854c-0.032,0-0.043-0.021-0.027-0.041c0.478-0.512,0.835,0.131,0.917,0.234c0.191,0.254,0.874-0.224,1.147-0.508   c0,0-0.604-0.632-0.604-1.21c0-0.033,0.003-0.083,0.003-0.102c0-0.018-0.008-0.025-0.023-0.017c-0.06,0.034-0.145,0.06-0.223,0.059   c-0.138,0-0.398-0.044-0.398-0.534c0-0.037,0.017-0.035,0.033-0.013c0.071,0.104,0.151,0.126,0.211,0.126   c0.487,0,1.504-1.624,2.703-1.624c0.313,0,0.906,0.227,1.206,0.551c-0.146,0.085-0.172,0.261-0.158,0.39   c0.022,0.206,0.186,0.308,0.353,0.354c0.03,0.007,0.032,0.029,0,0.042c-0.606,0.231-1.707,0.648-1.957,0.863   c-0.296,0.255-0.238,0.739-0.067,1.407c0.165,0.64,0.52,0.553,0.65,0.531c0.019-0.003,0.025,0.009,0.014,0.024   c-0.157,0.196-0.347,0.263-0.51,0.263c-0.314,0-0.432-0.195-0.595-0.195c-0.274,0-0.848,0.393-0.848,0.692   c0,0.167,0.131,0.319,0.3,0.429c0.011,0.008,0.008,0.021-0.008,0.024c-0.13,0.021-0.667,0.067-0.771-0.416   c-0.289,0.37-0.565,0.021-0.944,0.021c-0.184,0-0.41,0.063-0.452,0.434c-0.002,0.02-0.018,0.025-0.036,0   c-0.413-0.563,0.057-0.881,0.328-0.922c-0.059-0.053-0.462-0.301-0.717,0.065c-0.014,0.021-0.042,0.015-0.042-0.015   c0-0.713,0.535-0.763,0.922-0.454C36.248,97.037,36.039,96.854,35.769,96.854z M41.466,102.917   c-2.27,0.145-4.622,1.484-4.622,0.057v-0.841c1.779,0,2.04,0.565,2.04,0.65c0.174-0.07,0.289-0.183,0.289-0.41v-1   c0.286-0.101,1.07-0.4,2.633-0.4c1.3,0,1.708,0.294,1.726,0.396l0.346,1.906C43.876,103.275,43.35,102.794,41.466,102.917z    M39.969,84.643c0.047-0.232,0.345-0.567,1.246-0.447c0.426,0.053,0.733-0.059,0.589-0.307c-0.024-0.042,0.052-0.05,0.092-0.009   c0.099,0.099,0.234,0.377-0.139,0.563c-0.414,0.21-0.438,0.624-0.441,0.684c-0.007,0.088,0.099,0.097,0.123,0.009   c0.19-0.7,1.146-0.85,1.712-0.479c-0.034,0.375-0.437,0.623-0.657,0.623c-0.127,0-0.303-0.127-0.303-0.302   c0-0.084-0.043-0.073-0.068-0.007c-0.094,0.249,0.274,0.763,0.822,0.449c0.558,0.558,0.335,1.244,0.279,1.497   c-0.1,0.454,0.123,0.896,0.532,0.689c0.021-0.009,0.042-0.018,0.042,0.032c0,0.285-0.373,0.608-0.812,0.362   c-0.058,0.081-0.675,0.88,0.273,1.188c0.041,0.014,0.056,0.055-0.007,0.08c-0.7,0.293-1.039-0.244-1.039-0.244   c-0.352,0.805,0.188,1.252,0.188,1.252c-0.076,0.145-0.411,0.388-0.917,0.502c-0.193-0.104-0.463-0.301-0.575-0.604   c0,0-0.137,0.352-0.013,0.687c-1.429,0.131-1.935-1.012-3.035-0.807c-0.032,0.006-0.047-0.014-0.047-0.048   c0-0.704,0.432-1.992,1.794-2.253c1.359-0.263,0.993-0.82,0.993-0.82c-0.573-0.026-0.904,0.223-0.904,0.223   C39.592,86.985,39.74,86.8,39.74,86.8c-0.055-0.066-0.086-0.3-0.086-0.3c0.646,0,0.815-0.139,0.815-0.139   c0.098-0.383-0.167-0.924-1.125-0.345c-0.239-0.213-0.221-0.539-0.221-0.539c-0.072-0.033-0.118-0.146-0.118-0.195   C39.005,85.122,39.772,84.693,39.969,84.643z M37.748,85.978c0.021-0.081,0.068-0.062,0.08-0.007   c0.051,0.215,0.315,0.339,0.594,0.339c0.345,0,0.419-0.119,0.963-0.119c0.049,0,0.388,0,0.388,0.07   c0,0.069-0.158,0.033-0.388,0.072c-0.522,0.09-0.729,0.353-1.096,0.353C37.955,86.686,37.615,86.46,37.748,85.978z M30.243,77.297   c0.12,0,0.226,0.052,0.284,0.095c0.121,0.084,0.187,0.07,0.226,0.03c0.04-0.04,0.053-0.105-0.031-0.226   c-0.041-0.059-0.093-0.164-0.093-0.284c0-0.206,0.135-0.31,0.251-0.31c0.116,0,0.251,0.104,0.251,0.31   c0,0.12-0.052,0.226-0.094,0.284c-0.084,0.12-0.071,0.186-0.032,0.226c0.04,0.04,0.106,0.054,0.226-0.03   c0.059-0.043,0.164-0.095,0.285-0.095c0.206,0,0.308,0.136,0.308,0.252S31.722,77.8,31.516,77.8c-0.121,0-0.226-0.051-0.285-0.094   c-0.12-0.084-0.187-0.07-0.226-0.031c-0.039,0.039,0.019,0.453,0.065,0.779c0.341,0.072,0.506,0.346,0.506,0.505   c0,0.41-0.439,0.647-0.697,0.785c-0.258-0.138-0.697-0.375-0.697-0.785c0-0.159,0.165-0.433,0.506-0.505   c0.046-0.326,0.104-0.74,0.064-0.779c-0.039-0.039-0.105-0.053-0.226,0.031c-0.059,0.043-0.164,0.094-0.284,0.094   c-0.207,0-0.309-0.135-0.309-0.251S30.037,77.297,30.243,77.297z M31.38,80.462c0,0.276-0.224,0.501-0.5,0.501   c-0.276,0-0.501-0.225-0.501-0.501s0.225-0.5,0.501-0.5C31.156,79.962,31.38,80.186,31.38,80.462z M26.778,80.562   c0.454,0,0.382,0.295,0.769,0.295c0.048,0,0.097-0.012,0.097,0.022c0,0.128-0.108,0.346-0.285,0.346   c-0.237,0-0.242-0.237-0.418-0.237c-0.076,0-0.186,0.062-0.186,0.305c0,0.473,0.309,0.996,0.674,1.399   c0.083-0.115,0.197-0.188,0.334-0.188c0.215,0,0.405,0.226,0.405,0.504c0,0.103-0.017,0.178-0.054,0.264   c0.122,0.068,0.229,0.106,0.311,0.106c0.165,0,0.413-0.066,0.413-0.427c0-0.804-1.077-1.511-1.077-2.529   c0-0.486,0.325-0.971,1.004-0.971c0.728,0,0.592,0.665,1.222,0.665c0.029,0,0.052,0.009,0.052,0.035   c0,0.041-0.109,0.408-0.435,0.408c-0.349,0-0.447-0.603-0.755-0.603c-0.115,0-0.288,0.067-0.288,0.477   c0,0.317,0.157,0.831,0.383,1.323c0.082-0.082,0.192-0.141,0.317-0.141c0.27,0,0.464,0.26,0.464,0.572   c0,0.197-0.078,0.388-0.212,0.514c0.159,0.203,0.321,0.368,0.542,0.368c0.435,0,0.627-0.247,0.627-0.516   c0-0.292-0.531-0.397-0.531-0.853c0-0.309,0.201-0.482,0.394-0.482c0.208,0,0.314,0.138,0.336,0.138   c0.021,0,0.127-0.138,0.335-0.138c0.193,0,0.395,0.174,0.395,0.482c0,0.455-0.532,0.561-0.532,0.853   c0,0.269,0.192,0.516,0.627,0.516c0.22,0,0.383-0.165,0.542-0.368c-0.134-0.126-0.211-0.316-0.211-0.514   c0-0.312,0.194-0.572,0.464-0.572c0.125,0,0.236,0.059,0.318,0.141c0.226-0.492,0.383-1.006,0.383-1.323   c0-0.409-0.172-0.477-0.288-0.477c-0.309,0-0.407,0.603-0.755,0.603c-0.326,0-0.435-0.367-0.435-0.408   c0-0.026,0.023-0.035,0.052-0.035c0.63,0,0.495-0.665,1.222-0.665c0.679,0,1.004,0.484,1.004,0.971   c0,1.019-1.078,1.726-1.078,2.529c0,0.36,0.249,0.427,0.413,0.427c0.081,0,0.189-0.038,0.311-0.106   c-0.038-0.086-0.054-0.161-0.054-0.264c0-0.278,0.189-0.504,0.405-0.504c0.136,0,0.25,0.072,0.334,0.188   c0.365-0.403,0.673-0.927,0.673-1.399c0-0.242-0.109-0.305-0.186-0.305c-0.176,0-0.181,0.237-0.418,0.237   c-0.177,0-0.286-0.218-0.286-0.346c0-0.034,0.049-0.022,0.097-0.022c0.387,0,0.315-0.295,0.769-0.295   c0.153,0,0.669,0.082,0.669,0.813c0,1.108-1.368,1.442-1.051,2.293c-0.581-0.084-0.574,0.481-0.584,1.493   c0,0-1.131-0.383-3.136-0.383c-2.005,0-3.136,0.383-3.136,0.383c-0.011-1.012-0.004-1.577-0.585-1.493   c0.318-0.851-1.05-1.185-1.05-2.293C26.108,80.644,26.625,80.562,26.778,80.562z M23.932,85.971   c0.011-0.055,0.058-0.074,0.08,0.007c0.133,0.482-0.208,0.708-0.541,0.708c-0.367,0-0.573-0.263-1.097-0.353   c-0.23-0.039-0.388-0.003-0.388-0.072c0-0.07,0.338-0.07,0.388-0.07c0.544,0,0.618,0.119,0.964,0.119   C23.617,86.31,23.881,86.186,23.932,85.971z M18.004,87.606c0.409,0.206,0.631-0.235,0.532-0.689   c-0.056-0.253-0.278-0.939,0.279-1.497c0.547,0.313,0.916-0.2,0.822-0.449c-0.025-0.066-0.068-0.077-0.068,0.007   c0,0.175-0.176,0.302-0.303,0.302c-0.22,0-0.624-0.248-0.657-0.623c0.566-0.37,1.522-0.221,1.712,0.479   c0.023,0.088,0.129,0.079,0.123-0.009c-0.003-0.06-0.029-0.474-0.442-0.684c-0.372-0.187-0.236-0.465-0.138-0.563   c0.04-0.041,0.116-0.033,0.092,0.009c-0.144,0.248,0.164,0.359,0.59,0.307c0.901-0.12,1.198,0.215,1.246,0.447   c0.197,0.051,0.963,0.479,0.963,0.64c0,0.049-0.044,0.162-0.117,0.195c0,0,0.018,0.326-0.221,0.539   c-0.958-0.579-1.225-0.038-1.125,0.345c0,0,0.169,0.139,0.814,0.139c0,0-0.031,0.233-0.085,0.3c0,0,0.148,0.186,0.043,0.356   c0,0-0.331-0.249-0.904-0.223c0,0-0.366,0.558,0.993,0.82c1.363,0.261,1.794,1.549,1.794,2.253c0,0.034-0.015,0.054-0.046,0.048   c-1.101-0.205-1.606,0.938-3.035,0.807c0.124-0.335-0.013-0.687-0.013-0.687c-0.113,0.303-0.383,0.499-0.575,0.604   c-0.508-0.114-0.842-0.357-0.919-0.502c0,0,0.54-0.447,0.188-1.252c0,0-0.339,0.537-1.039,0.244   c-0.062-0.025-0.048-0.066-0.006-0.08c0.947-0.308,0.33-1.106,0.273-1.188c-0.439,0.246-0.812-0.077-0.812-0.362   C17.962,87.589,17.982,87.598,18.004,87.606z M14.662,88.57c-0.021-0.045,0.034-0.077,0.062-0.021   c0.074,0.146,0.207,0.529,0.739,0.529c0.005,0,1.088,0.002,1.271,0.002c1.42,0,1.55,1.147,1.55,1.43   c0,1.163-1.478,1.669-1.478,2.85c0,0.277,0.141,0.739,0.905,0.739c0.313,0,0.645-0.09,0.844-0.175c0,0,0.341-2.069,1.343-2.784   c0,0,1.174,0.569,2.335-0.06c0.888-0.48,1.306-0.802,2.084-0.264s1.458,1.116,1.543,1.101l0.186-0.036v-4.649   c-0.361-0.038-0.386,0.285-0.37,0.37c0.02,0.109,0.139,0.193-0.109,0.562c-0.02,0.026-0.048,0.016-0.051-0.015   c-0.01-0.094-0.058-0.251-0.184-0.251c-0.122,0-0.674,0.416-1.146,0.889c0,0-0.271-0.819-0.922-1.071   c0.369-0.057,1.963-0.443,1.963-1.141c0-0.233,0.263-0.287,0.435-0.273c0.007-0.021,0.268-0.64,0.754-0.316   c0.026,0.017,0.019,0.054-0.009,0.062c-0.215,0.049-0.307,0.272-0.315,0.514c0.175-0.054,0.567-0.167,1.112-0.286v1.482h0.654   v-1.612c0.834-0.15,1.884-0.281,3.022-0.281c2.346,0,4.324,0.555,4.789,0.697c-0.009-0.241-0.101-0.465-0.315-0.514   c-0.028-0.008-0.035-0.045-0.009-0.062c0.486-0.323,0.747,0.296,0.755,0.316c0.171-0.014,0.434,0.04,0.434,0.273   c0,0.697,1.594,1.084,1.963,1.141c-0.651,0.252-0.922,1.071-0.922,1.071c-0.473-0.473-1.026-0.889-1.147-0.889   c-0.125,0-0.173,0.157-0.183,0.251c-0.003,0.03-0.032,0.041-0.051,0.015c-0.247-0.369-0.129-0.453-0.109-0.562   c0.017-0.085-0.009-0.408-0.37-0.37v4.649l0.186,0.036c0.085,0.016,0.764-0.562,1.543-1.101c0.778-0.538,1.196-0.217,2.084,0.264   c1.161,0.629,2.336,0.06,2.336,0.06c1.001,0.715,1.343,2.784,1.343,2.784c0.199,0.085,0.529,0.175,0.843,0.175   c0.765,0,0.905-0.462,0.905-0.739c0-1.181-1.477-1.687-1.477-2.85c0-0.282,0.13-1.43,1.549-1.43c0.182,0,1.266-0.002,1.271-0.002   c0.532,0,0.664-0.383,0.738-0.529c0.028-0.056,0.083-0.023,0.062,0.021c-0.041,0.097,0.061,0.245,0.061,0.541   c0,0.472-0.278,0.756-0.794,0.756c-0.234,0-0.457-0.066-0.528-0.109c-0.048-0.028-0.074,0.018-0.051,0.044   c0.226,0.263,0.244,0.755,0.151,0.875c-0.022,0.029-0.05,0.021-0.055-0.003c-0.125-0.498-0.592-0.97-1.222-0.97   c-0.77,0-0.767,0.654-0.767,0.812c0,0.947,1.663,1.642,1.663,2.943c0,1.32-1.395,1.604-2.203,1.394   c0.048,1.322,1.561,1.772,1.607,0.827c0.003-0.045,0.036-0.056,0.061,0.004c0.191,0.467,0.116,0.878-0.473,1.008   c-0.041,0.011-0.021,0.032,0.016,0.057c0.583,0.372,0.267,1.828,0.238,2.258c-0.044,0.617,0.57,0.543,0.621,0.525   c0.024-0.011,0.049,0.003,0.011,0.052c-0.436,0.534-0.974,0.046-0.974,0.046c-0.407,0.127-0.155,0.474,0.117,0.656   c0.042,0.028,0.038,0.056-0.007,0.06c-0.061,0.003-0.69,0.056-0.802-0.445c-0.279,0.333-0.688,0.212-0.774,0.168   c-0.122-0.062-0.711-0.276-0.77,0.386c-0.004,0.049-0.032,0.018-0.051-0.007c-0.445-0.56,0.032-0.906,0.297-0.946   c-0.022-0.032-0.379-0.327-0.7,0.083c-0.021,0.028-0.042,0.034-0.046-0.022c-0.037-0.71,0.542-0.774,0.915-0.466   c0.018-0.073,0.142-0.473-0.422-0.458c-0.014,0-0.041-0.021-0.012-0.049c0.439-0.463,0.799-0.041,0.883,0.059   c0.196,0.23,0.682,0.14,0.727,0.134c-0.152-2.47-2.328-1.595-2.627-2.795c-0.014-0.064-0.042-0.039-0.049-0.018   c-0.082,0.294-0.82,0.334-0.956-0.243c-0.008-0.035-0.003-0.062,0.023-0.036c0.629,0.628,2.048-1.337,0.112-2.935   c-1.652-1.363-3.133-0.603-3.696-0.155c-0.03,0.197,0.087,0.261,0.162,0.285c0.027,0.008,0.036,0.033-0.007,0.05   c-0.158,0.06-0.379,0.041-0.483-0.106c-0.355,0.248-0.051,0.561,0.093,0.646c0.036,0.022,0.021,0.047-0.01,0.053   c-0.325,0.059-0.594-0.273-0.607-0.465l-0.055,0.03v1.404c0,1.997-2.305,2.274-4.834,3.969c-2.53-1.694-4.835-1.972-4.835-3.969   v-1.404l-0.055-0.03c-0.013,0.191-0.281,0.523-0.607,0.465c-0.03-0.006-0.046-0.03-0.009-0.053   c0.143-0.086,0.447-0.398,0.092-0.646c-0.104,0.147-0.326,0.166-0.483,0.106c-0.043-0.017-0.034-0.042-0.008-0.05   c0.076-0.024,0.193-0.088,0.164-0.285c-0.563-0.447-2.044-1.208-3.696,0.155c-1.936,1.598-0.517,3.562,0.112,2.935   c0.026-0.026,0.03,0.001,0.023,0.036c-0.135,0.577-0.874,0.537-0.956,0.243c-0.006-0.021-0.035-0.047-0.048,0.018   c-0.299,1.2-2.475,0.325-2.627,2.795c0.044,0.006,0.531,0.097,0.727-0.134c0.083-0.1,0.445-0.521,0.883-0.059   c0.028,0.028,0.002,0.049-0.012,0.049c-0.565-0.015-0.441,0.385-0.423,0.458c0.375-0.309,0.952-0.244,0.916,0.466   c-0.004,0.057-0.024,0.051-0.046,0.022c-0.321-0.41-0.678-0.115-0.7-0.083c0.265,0.04,0.743,0.387,0.297,0.946   c-0.019,0.024-0.047,0.056-0.05,0.007c-0.059-0.662-0.649-0.447-0.77-0.386c-0.086,0.044-0.496,0.165-0.775-0.168   c-0.112,0.501-0.741,0.448-0.802,0.445c-0.046-0.004-0.049-0.031-0.007-0.06c0.271-0.183,0.523-0.529,0.117-0.656   c0,0-0.538,0.488-0.974-0.046c-0.039-0.049-0.015-0.062,0.011-0.052c0.05,0.018,0.665,0.092,0.621-0.525   c-0.029-0.43-0.345-1.886,0.238-2.258c0.037-0.024,0.056-0.046,0.016-0.057c-0.589-0.13-0.665-0.541-0.473-1.008   c0.024-0.06,0.057-0.049,0.061-0.004c0.046,0.945,1.559,0.495,1.606-0.827c-0.809,0.21-2.203-0.073-2.203-1.394   c0-1.302,1.663-1.996,1.663-2.943c0-0.158,0.004-0.812-0.767-0.812c-0.629,0-1.097,0.472-1.221,0.97   c-0.005,0.023-0.033,0.032-0.055,0.003c-0.093-0.12-0.075-0.612,0.15-0.875c0.022-0.026-0.003-0.072-0.051-0.044   c-0.072,0.043-0.293,0.109-0.528,0.109c-0.518,0-0.795-0.284-0.795-0.756C14.6,88.815,14.702,88.667,14.662,88.57z"/>
	<rect x="30.88" y="95.496" fill="#154273" width="0.654" height="1.813"/>
	<path fill="#373F47" d="M58.909,87.976c0.141,0,0.27,0,0.376-0.013c0.117,0,0.223-0.012,0.328-0.035   c0.094-0.012,0.2-0.035,0.306-0.059c0.094-0.024,0.211-0.059,0.34-0.094v-0.258l-0.763-0.201l0.364-5.882l0.012-0.012l2.113,6.564   l0.458-0.06l2.09-6.517h0.024l0.293,5.332c0.023,0.48-0.212,0.774-0.693,0.891v0.223c0.106,0.024,0.2,0.048,0.306,0.06   c0.094,0.012,0.188,0.023,0.293,0.035c0.105,0,0.211,0.012,0.317,0.012c0.118,0.013,0.235,0.013,0.375,0.013   c0.224,0,0.435-0.024,0.635-0.048c0.199-0.035,0.364-0.083,0.505-0.152v-0.258l-0.681-0.13l-0.517-6.457l0.728-0.177v-0.341   c-0.234-0.034-0.481-0.059-0.728-0.07c-0.246-0.012-0.481-0.012-0.692-0.012h-0.505l-1.785,5.694h-0.012l-1.843-5.694H60.13   c-0.106,0-0.222,0-0.352,0c-0.129,0-0.27,0.012-0.411,0.012c-0.141,0.012-0.282,0.012-0.423,0.023   c-0.141,0.013-0.282,0.036-0.411,0.047v0.341l0.682,0.2l-0.517,6c-0.012,0.176-0.082,0.317-0.2,0.434   c-0.105,0.106-0.27,0.188-0.493,0.259v0.21c0.14,0.036,0.305,0.06,0.458,0.083C58.627,87.963,58.78,87.976,58.909,87.976z"/>
	<path fill="#373F47" d="M68.074,81.001c0.059,0.059,0.129,0.105,0.2,0.142c0.083,0.034,0.165,0.047,0.247,0.047   c0.094,0,0.176-0.013,0.258-0.06c0.082-0.036,0.152-0.082,0.212-0.153c0.058-0.058,0.105-0.14,0.14-0.223   c0.035-0.094,0.047-0.188,0.047-0.294c0-0.094-0.012-0.187-0.047-0.257c-0.035-0.083-0.07-0.153-0.129-0.2   c-0.059-0.059-0.129-0.105-0.199-0.13c-0.071-0.034-0.153-0.047-0.235-0.047c-0.106,0-0.199,0.024-0.282,0.06   c-0.082,0.035-0.152,0.082-0.211,0.152c-0.059,0.07-0.105,0.141-0.129,0.224c-0.035,0.081-0.046,0.165-0.046,0.257   c0,0.096,0.012,0.189,0.046,0.271C67.98,80.87,68.027,80.942,68.074,81.001z"/>
	<path fill="#373F47" d="M68.027,87.023c0,0.07-0.011,0.143-0.047,0.2c-0.035,0.07-0.082,0.129-0.141,0.176   c-0.058,0.059-0.129,0.106-0.199,0.153c-0.083,0.048-0.152,0.081-0.235,0.105v0.198c0.129,0.048,0.282,0.071,0.446,0.083   c0.152,0.012,0.305,0.023,0.434,0.023c0.153,0,0.282-0.012,0.411-0.012c0.118-0.012,0.235-0.023,0.341-0.035   c0.117-0.012,0.211-0.035,0.316-0.06c0.094-0.022,0.188-0.058,0.294-0.093v-0.223l-0.657-0.177v-4.461l0.058-0.635h-0.376   c-0.164,0-0.375,0.012-0.622,0.059c-0.246,0.036-0.505,0.083-0.775,0.164v0.248l0.751,0.316V87.023z"/>
	<path fill="#373F47" d="M75.439,84.077c0-0.294-0.047-0.563-0.118-0.798c-0.083-0.224-0.2-0.411-0.341-0.564   s-0.316-0.27-0.516-0.352c-0.199-0.083-0.422-0.118-0.669-0.118c-0.34,0-0.669,0.059-0.975,0.177   c-0.304,0.117-0.563,0.281-0.762,0.481v-0.635h-0.282c-0.176,0-0.387,0.012-0.634,0.047c-0.247,0.035-0.505,0.082-0.775,0.164v0.26   l0.763,0.316v3.968c0,0.07-0.012,0.143-0.047,0.2c-0.047,0.07-0.093,0.129-0.152,0.176c-0.059,0.059-0.118,0.106-0.2,0.153   c-0.07,0.048-0.141,0.081-0.223,0.105v0.198c0.129,0.048,0.282,0.071,0.435,0.083s0.305,0.023,0.446,0.023   c0.152,0,0.282-0.012,0.399-0.012c0.129-0.012,0.247-0.023,0.353-0.035c0.105-0.012,0.211-0.035,0.317-0.06   c0.094-0.022,0.188-0.058,0.293-0.093v-0.223l-0.657-0.177v-3.945c0.128-0.094,0.304-0.188,0.528-0.258   c0.211-0.07,0.446-0.105,0.681-0.105c0.176,0,0.328,0.023,0.481,0.082c0.141,0.06,0.259,0.153,0.364,0.281   c0.106,0.118,0.188,0.282,0.247,0.493c0.047,0.2,0.083,0.446,0.083,0.729v2.241c0,0.212-0.036,0.378-0.106,0.495   c-0.059,0.129-0.165,0.211-0.316,0.281v0.198c0.117,0.048,0.246,0.071,0.375,0.083c0.141,0.012,0.27,0.023,0.388,0.023   c0.493,0,0.904-0.07,1.233-0.199v-0.223l-0.61-0.177V84.077z"/>
	<path fill="#373F47" d="M77.555,87.023c0,0.07-0.012,0.143-0.047,0.2c-0.035,0.07-0.083,0.129-0.141,0.176   c-0.058,0.059-0.129,0.106-0.199,0.153c-0.082,0.048-0.153,0.081-0.235,0.105v0.198c0.129,0.048,0.281,0.071,0.446,0.083   c0.153,0.012,0.305,0.023,0.435,0.023c0.152,0,0.281-0.012,0.411-0.012c0.117-0.012,0.235-0.023,0.34-0.035   c0.117-0.012,0.211-0.035,0.317-0.06c0.094-0.022,0.188-0.058,0.293-0.093v-0.223l-0.657-0.177v-4.461l0.058-0.635h-0.375   c-0.165,0-0.376,0.012-0.622,0.059c-0.246,0.036-0.505,0.083-0.775,0.164v0.248l0.752,0.316V87.023z"/>
	<path fill="#373F47" d="M77.602,81.001c0.059,0.059,0.129,0.105,0.2,0.142c0.082,0.034,0.165,0.047,0.247,0.047   c0.094,0,0.176-0.013,0.258-0.06c0.083-0.036,0.153-0.082,0.212-0.153c0.058-0.058,0.106-0.14,0.141-0.223   c0.035-0.094,0.047-0.188,0.047-0.294c0-0.094-0.012-0.187-0.047-0.257c-0.035-0.083-0.07-0.153-0.129-0.2   c-0.059-0.059-0.128-0.105-0.199-0.13c-0.07-0.034-0.153-0.047-0.235-0.047c-0.105,0-0.199,0.024-0.281,0.06   c-0.083,0.035-0.153,0.082-0.212,0.152s-0.105,0.141-0.129,0.224c-0.036,0.081-0.047,0.165-0.047,0.257   c0,0.096,0.012,0.189,0.047,0.271C77.508,80.87,77.555,80.942,77.602,81.001z"/>
	<path fill="#373F47" d="M82.966,87.506c0.188-0.153,0.341-0.34,0.447-0.541c0.105-0.211,0.152-0.435,0.152-0.656   c0-0.166-0.023-0.329-0.059-0.471c-0.047-0.141-0.117-0.27-0.199-0.398c-0.094-0.118-0.223-0.224-0.364-0.317   c-0.152-0.094-0.329-0.188-0.54-0.271l-0.634-0.246c-0.176-0.071-0.329-0.129-0.446-0.2c-0.117-0.059-0.211-0.129-0.282-0.211   c-0.07-0.07-0.116-0.14-0.152-0.235c-0.023-0.082-0.035-0.176-0.035-0.281c0-0.094,0.023-0.188,0.059-0.281   c0.046-0.083,0.117-0.165,0.211-0.235c0.094-0.059,0.2-0.118,0.34-0.152c0.141-0.035,0.306-0.059,0.493-0.059   c0.223,0,0.458,0.047,0.693,0.129c0.247,0.082,0.458,0.188,0.646,0.317c0.012-0.083,0.035-0.165,0.047-0.247   c0.012-0.07,0.012-0.152,0.012-0.246c0-0.105-0.023-0.212-0.071-0.307c-0.047-0.081-0.129-0.163-0.235-0.223   c-0.105-0.059-0.246-0.117-0.411-0.139c-0.164-0.037-0.364-0.061-0.599-0.061c-0.306,0-0.587,0.047-0.833,0.141   c-0.258,0.095-0.47,0.224-0.646,0.376c-0.176,0.153-0.317,0.34-0.422,0.552c-0.094,0.2-0.141,0.422-0.141,0.657   c0,0.341,0.094,0.622,0.27,0.869c0.188,0.247,0.446,0.446,0.787,0.587l0.587,0.246c0.2,0.083,0.364,0.165,0.481,0.235   c0.129,0.082,0.234,0.153,0.317,0.235c0.07,0.081,0.129,0.163,0.165,0.246s0.047,0.177,0.047,0.281   c0,0.212-0.082,0.376-0.247,0.518c-0.176,0.142-0.422,0.211-0.752,0.211c-0.316,0-0.598-0.058-0.868-0.188   c-0.258-0.118-0.529-0.305-0.787-0.553c-0.036,0.071-0.059,0.143-0.082,0.224c-0.012,0.094-0.023,0.176-0.023,0.259   c0,0.316,0.117,0.562,0.363,0.716c0.235,0.164,0.611,0.247,1.127,0.247c0.329,0,0.634-0.047,0.892-0.142   C82.543,87.799,82.778,87.67,82.966,87.506z"/>
	<path fill="#373F47" d="M87.054,87.142c-0.153,0.059-0.305,0.082-0.481,0.082c-0.105,0-0.211-0.023-0.293-0.07   c-0.094-0.047-0.164-0.118-0.223-0.211c-0.071-0.105-0.117-0.235-0.153-0.4c-0.036-0.164-0.047-0.363-0.047-0.599   c0-0.223,0-0.435,0-0.657c0-0.234,0.011-0.47,0.011-0.716l0.024-1.479h1.503l0.083-0.634h-1.55l0.047-1.058l-0.388,0.047   l-1.268,1.257v0.388h0.646l-0.035,1.562c-0.012,0.271-0.012,0.552-0.023,0.856c-0.012,0.295-0.012,0.588-0.012,0.869   c0,0.576,0.117,0.986,0.34,1.245c0.235,0.258,0.587,0.388,1.057,0.388c0.799,0,1.221-0.353,1.269-1.046l-0.118-0.047   C87.324,87.012,87.195,87.083,87.054,87.142z"/>
	<path fill="#373F47" d="M92.535,86.837c-0.012-0.061-0.023-0.105-0.035-0.13c-0.105,0.069-0.235,0.142-0.364,0.211   c-0.141,0.059-0.27,0.117-0.422,0.153c-0.142,0.047-0.282,0.082-0.435,0.105c-0.153,0.023-0.294,0.035-0.435,0.035   c-0.247,0-0.47-0.046-0.681-0.141s-0.399-0.234-0.552-0.411s-0.282-0.388-0.376-0.646c-0.082-0.259-0.128-0.553-0.128-0.882h3.464   c0.011-0.14,0.011-0.281,0.011-0.399c0-0.128,0-0.233,0-0.352c0-0.34-0.047-0.634-0.141-0.916   c-0.094-0.269-0.223-0.492-0.399-0.692c-0.176-0.188-0.387-0.328-0.634-0.433c-0.258-0.105-0.54-0.154-0.857-0.154   c-0.306,0-0.61,0.07-0.904,0.211c-0.293,0.13-0.552,0.342-0.775,0.6c-0.235,0.27-0.422,0.599-0.563,0.985   c-0.141,0.399-0.212,0.857-0.212,1.363c0,0.41,0.071,0.785,0.188,1.114c0.129,0.329,0.305,0.611,0.528,0.846   c0.223,0.235,0.47,0.411,0.775,0.539c0.293,0.131,0.599,0.189,0.939,0.189c0.305,0,0.587-0.023,0.845-0.083   c0.247-0.059,0.458-0.129,0.635-0.223c0.176-0.095,0.305-0.211,0.399-0.329c0.094-0.117,0.141-0.246,0.141-0.388   C92.547,86.954,92.547,86.895,92.535,86.837z M89.248,83.865c0.082-0.2,0.176-0.388,0.306-0.54   c0.117-0.151,0.258-0.282,0.422-0.363c0.165-0.094,0.317-0.142,0.481-0.142c0.165,0,0.329,0.036,0.47,0.105   c0.153,0.071,0.27,0.177,0.376,0.317c0.105,0.141,0.188,0.317,0.247,0.527c0.059,0.212,0.093,0.459,0.093,0.752h-2.512   C89.131,84.288,89.166,84.077,89.248,83.865z"/>
	<path fill="#373F47" d="M96.432,82.21c-0.2,0-0.376,0.047-0.541,0.131c-0.164,0.081-0.34,0.21-0.493,0.386l-0.329,0.364h-0.012   v-0.822h-0.282c-0.175,0-0.387,0.012-0.634,0.047c-0.247,0.035-0.505,0.082-0.775,0.164v0.26l0.763,0.316v3.968   c0,0.07-0.012,0.143-0.047,0.2c-0.046,0.07-0.093,0.129-0.152,0.176c-0.059,0.059-0.118,0.106-0.2,0.153   c-0.071,0.048-0.141,0.081-0.223,0.105v0.198c0.128,0.048,0.281,0.071,0.446,0.083c0.152,0.012,0.317,0.023,0.493,0.023   c0.164,0,0.317-0.012,0.458-0.012c0.129-0.012,0.258-0.023,0.376-0.035c0.117-0.012,0.222-0.035,0.316-0.06   c0.106-0.022,0.211-0.058,0.305-0.093v-0.223l-0.81-0.177v-3.733c0.328-0.317,0.669-0.481,1.033-0.481   c0.129,0,0.247,0.024,0.375,0.071c0.129,0.046,0.247,0.116,0.353,0.198c0.059-0.105,0.105-0.222,0.141-0.352   c0.035-0.13,0.047-0.247,0.047-0.353C97.042,82.374,96.842,82.21,96.432,82.21z"/>
	<path fill="#373F47" d="M98.283,87.023c0,0.07-0.011,0.143-0.047,0.2c-0.035,0.07-0.082,0.129-0.141,0.176   c-0.058,0.059-0.128,0.106-0.199,0.153c-0.083,0.048-0.153,0.081-0.235,0.105v0.198c0.129,0.048,0.282,0.071,0.446,0.083   c0.152,0.012,0.306,0.023,0.435,0.023c0.152,0,0.281-0.012,0.411-0.012c0.117-0.012,0.235-0.023,0.34-0.035   c0.118-0.012,0.211-0.035,0.317-0.06c0.094-0.022,0.188-0.058,0.294-0.093v-0.223l-0.658-0.177v-4.461l0.059-0.635h-0.376   c-0.164,0-0.375,0.012-0.622,0.059c-0.247,0.036-0.505,0.083-0.775,0.164v0.248l0.751,0.316V87.023z"/>
	<path fill="#373F47" d="M98.331,81.001c0.059,0.059,0.129,0.105,0.2,0.142c0.082,0.034,0.164,0.047,0.247,0.047   c0.094,0,0.176-0.013,0.258-0.06c0.082-0.036,0.153-0.082,0.211-0.153c0.059-0.058,0.105-0.14,0.141-0.223   c0.036-0.094,0.047-0.188,0.047-0.294c0-0.094-0.012-0.187-0.047-0.257c-0.035-0.083-0.07-0.153-0.129-0.2   c-0.059-0.059-0.129-0.105-0.199-0.13c-0.071-0.034-0.153-0.047-0.235-0.047c-0.106,0-0.199,0.024-0.281,0.06   s-0.153,0.082-0.211,0.152s-0.105,0.141-0.129,0.224c-0.035,0.081-0.047,0.165-0.047,0.257c0,0.096,0.012,0.189,0.047,0.271   C98.236,80.87,98.283,80.942,98.331,81.001z"/>
	<path fill="#373F47" d="M104.599,87.729c0.176-0.095,0.305-0.211,0.399-0.329c0.094-0.117,0.142-0.246,0.142-0.388   c0-0.058,0-0.117-0.013-0.175c-0.012-0.061-0.023-0.105-0.035-0.13c-0.105,0.069-0.235,0.142-0.364,0.211   c-0.141,0.059-0.27,0.117-0.423,0.153c-0.141,0.047-0.282,0.082-0.435,0.105s-0.293,0.035-0.434,0.035   c-0.247,0-0.47-0.046-0.681-0.141c-0.211-0.095-0.399-0.234-0.552-0.411s-0.282-0.388-0.376-0.646   c-0.082-0.259-0.129-0.553-0.129-0.882h3.463c0.012-0.14,0.012-0.281,0.012-0.399c0-0.128,0-0.233,0-0.352   c0-0.34-0.047-0.634-0.14-0.916c-0.095-0.269-0.224-0.492-0.4-0.692c-0.176-0.188-0.387-0.328-0.634-0.433   c-0.258-0.105-0.541-0.154-0.857-0.154c-0.305,0-0.61,0.07-0.904,0.211c-0.293,0.13-0.552,0.342-0.775,0.6   c-0.234,0.27-0.422,0.599-0.562,0.985c-0.141,0.399-0.211,0.857-0.211,1.363c0,0.41,0.07,0.785,0.188,1.114   c0.129,0.329,0.305,0.611,0.528,0.846c0.222,0.235,0.469,0.411,0.774,0.539c0.293,0.131,0.599,0.189,0.94,0.189   c0.304,0,0.586-0.023,0.845-0.083C104.211,87.893,104.422,87.822,104.599,87.729z M101.839,83.865   c0.083-0.2,0.176-0.388,0.306-0.54c0.117-0.151,0.258-0.282,0.423-0.363c0.164-0.094,0.317-0.142,0.481-0.142   c0.165,0,0.329,0.036,0.47,0.105c0.152,0.071,0.27,0.177,0.375,0.317c0.105,0.141,0.188,0.317,0.247,0.527   c0.059,0.212,0.094,0.459,0.094,0.752h-2.512C101.722,84.288,101.757,84.077,101.839,83.865z"/>
	<polygon fill="#373F47" points="110.759,87.999 112.837,82.82 113.178,82.551 113.178,82.269 111.357,82.269 111.357,82.551    112.039,82.868 110.736,86.555 110.724,86.555 109.444,82.833 110.113,82.551 110.113,82.269 107.882,82.269 107.882,82.551    108.364,82.892 110.348,88.022  "/>
	<path fill="#373F47" d="M117.472,86.849l0.036-1.902c0-0.083,0.012-0.188,0.012-0.294s0.012-0.224,0.012-0.329   c0.012-0.118,0.012-0.223,0.012-0.316c0.012-0.106,0.012-0.188,0.012-0.246c0-0.247-0.047-0.47-0.129-0.658   c-0.082-0.188-0.211-0.352-0.375-0.494c-0.165-0.14-0.353-0.234-0.587-0.316c-0.235-0.07-0.505-0.105-0.798-0.105   c-0.341,0-0.634,0.023-0.881,0.082c-0.247,0.047-0.446,0.129-0.599,0.234c-0.152,0.094-0.27,0.224-0.34,0.365   c-0.07,0.151-0.106,0.317-0.106,0.504c0,0.13,0.012,0.248,0.036,0.354c0.247-0.248,0.528-0.435,0.821-0.564   c0.305-0.13,0.61-0.199,0.939-0.199c0.188,0,0.341,0.023,0.469,0.058c0.142,0.048,0.247,0.13,0.329,0.235   c0.083,0.117,0.141,0.27,0.188,0.471c0.035,0.199,0.059,0.457,0.059,0.774v0.316c-0.481,0-0.916,0.059-1.292,0.152   c-0.375,0.105-0.693,0.247-0.951,0.423c-0.27,0.177-0.469,0.376-0.599,0.61c-0.141,0.224-0.211,0.47-0.211,0.729   c0,0.187,0.036,0.362,0.106,0.516c0.082,0.164,0.176,0.306,0.317,0.423c0.129,0.117,0.282,0.199,0.47,0.27   c0.176,0.06,0.375,0.095,0.598,0.095c0.153,0,0.306-0.012,0.458-0.047c0.165-0.024,0.306-0.06,0.447-0.118   c0.141-0.047,0.258-0.105,0.387-0.176c0.118-0.07,0.211-0.141,0.293-0.224c0.07,0.118,0.152,0.224,0.235,0.329   c0.094,0.094,0.188,0.177,0.305,0.248c0.153-0.071,0.305-0.166,0.446-0.283c0.152-0.105,0.271-0.211,0.353-0.317   c-0.105-0.082-0.2-0.175-0.282-0.28C117.578,87.06,117.52,86.954,117.472,86.849z M116.58,87.012   c-0.071,0.048-0.152,0.082-0.247,0.118c-0.094,0.047-0.188,0.082-0.293,0.105c-0.095,0.024-0.2,0.047-0.306,0.07   c-0.094,0.011-0.188,0.023-0.282,0.023c-0.305,0-0.528-0.069-0.681-0.211c-0.152-0.142-0.234-0.329-0.234-0.563   c0-0.164,0.047-0.306,0.129-0.458c0.094-0.142,0.223-0.271,0.399-0.376c0.164-0.106,0.375-0.188,0.634-0.259   c0.258-0.059,0.552-0.093,0.88-0.093V87.012z"/>
	<path fill="#373F47" d="M123.821,84.077c0-0.294-0.047-0.563-0.117-0.798c-0.083-0.224-0.2-0.411-0.34-0.564   c-0.143-0.153-0.317-0.27-0.518-0.352c-0.199-0.083-0.423-0.118-0.669-0.118c-0.341,0-0.67,0.059-0.975,0.177   c-0.306,0.117-0.564,0.281-0.763,0.481v-0.635h-0.282c-0.176,0-0.388,0.012-0.634,0.047s-0.505,0.082-0.774,0.164v0.26l0.763,0.316   v3.968c0,0.07-0.012,0.143-0.047,0.2c-0.047,0.07-0.094,0.129-0.152,0.176c-0.059,0.059-0.118,0.106-0.201,0.153   c-0.069,0.048-0.14,0.081-0.222,0.105v0.198c0.128,0.048,0.281,0.071,0.434,0.083c0.153,0.012,0.305,0.023,0.446,0.023   c0.153,0,0.282-0.012,0.399-0.012c0.129-0.012,0.247-0.023,0.353-0.035s0.21-0.035,0.316-0.06c0.095-0.022,0.188-0.058,0.293-0.093   v-0.223l-0.656-0.177v-3.945c0.129-0.094,0.305-0.188,0.528-0.258c0.211-0.07,0.445-0.105,0.681-0.105   c0.177,0,0.327,0.023,0.481,0.082c0.141,0.06,0.258,0.153,0.363,0.281c0.106,0.118,0.189,0.282,0.246,0.493   c0.049,0.2,0.083,0.446,0.083,0.729v2.241c0,0.212-0.034,0.378-0.105,0.495c-0.059,0.129-0.165,0.211-0.317,0.281v0.198   c0.117,0.048,0.247,0.071,0.377,0.083c0.14,0.012,0.269,0.023,0.386,0.023c0.494,0,0.905-0.07,1.234-0.199v-0.223l-0.611-0.177   V84.077z"/>
	<path fill="#373F47" d="M133.34,81.2c-0.271-0.305-0.599-0.54-0.987-0.703c-0.376-0.166-0.774-0.248-1.21-0.248   c-0.305,0-0.598,0.048-0.892,0.13c-0.306,0.093-0.575,0.224-0.834,0.387c-0.27,0.165-0.504,0.364-0.739,0.601   c-0.224,0.233-0.41,0.504-0.575,0.809c-0.153,0.305-0.282,0.634-0.376,0.999c-0.081,0.363-0.129,0.738-0.129,1.149   c0,0.588,0.082,1.104,0.246,1.562c0.164,0.47,0.388,0.858,0.67,1.175c0.281,0.317,0.61,0.563,0.998,0.739   c0.375,0.177,0.774,0.26,1.209,0.26c0.471,0,0.916-0.096,1.351-0.295c0.422-0.188,0.798-0.47,1.126-0.834   c0.318-0.364,0.577-0.811,0.764-1.339c0.2-0.528,0.294-1.138,0.294-1.808c0-0.54-0.082-1.032-0.246-1.468   C133.844,81.882,133.621,81.506,133.34,81.2z M132.916,85.475c-0.128,0.41-0.306,0.762-0.517,1.033   c-0.223,0.269-0.457,0.469-0.728,0.599c-0.27,0.141-0.552,0.199-0.834,0.199c-0.271,0-0.528-0.059-0.775-0.199   c-0.246-0.13-0.468-0.33-0.656-0.587c-0.2-0.259-0.353-0.588-0.47-0.975c-0.117-0.388-0.176-0.845-0.176-1.362   s0.07-0.962,0.188-1.362c0.129-0.398,0.306-0.728,0.517-0.997c0.211-0.271,0.446-0.471,0.716-0.611   c0.271-0.141,0.552-0.211,0.834-0.211c0.27,0,0.528,0.059,0.786,0.176c0.247,0.117,0.47,0.307,0.67,0.551   c0.188,0.248,0.34,0.553,0.457,0.929c0.118,0.375,0.177,0.821,0.177,1.339C133.104,84.559,133.046,85.052,132.916,85.475z"/>
	<path fill="#373F47" d="M140.181,84.077c0-0.294-0.047-0.563-0.117-0.798c-0.082-0.224-0.199-0.411-0.341-0.564   c-0.141-0.153-0.316-0.27-0.517-0.352c-0.199-0.083-0.422-0.118-0.669-0.118c-0.341,0-0.67,0.059-0.975,0.177   c-0.306,0.117-0.563,0.281-0.763,0.481v-0.635h-0.282c-0.177,0-0.388,0.012-0.635,0.047c-0.245,0.035-0.505,0.082-0.774,0.164v0.26   l0.763,0.316v3.968c0,0.07-0.012,0.143-0.047,0.2c-0.047,0.07-0.093,0.129-0.151,0.176c-0.06,0.059-0.118,0.106-0.199,0.153   c-0.071,0.048-0.143,0.081-0.224,0.105v0.198c0.128,0.048,0.282,0.071,0.435,0.083s0.305,0.023,0.445,0.023   c0.153,0,0.282-0.012,0.399-0.012c0.13-0.012,0.246-0.023,0.352-0.035s0.211-0.035,0.318-0.06c0.094-0.022,0.188-0.058,0.293-0.093   v-0.223l-0.657-0.177v-3.945c0.129-0.094,0.306-0.188,0.527-0.258c0.212-0.07,0.446-0.105,0.682-0.105   c0.176,0,0.329,0.023,0.481,0.082c0.141,0.06,0.259,0.153,0.363,0.281c0.106,0.118,0.188,0.282,0.247,0.493   c0.048,0.2,0.082,0.446,0.082,0.729v2.241c0,0.212-0.034,0.378-0.105,0.495c-0.059,0.129-0.165,0.211-0.316,0.281v0.198   c0.117,0.048,0.246,0.071,0.375,0.083c0.141,0.012,0.271,0.023,0.389,0.023c0.492,0,0.903-0.07,1.232-0.199v-0.223l-0.611-0.177   V84.077z"/>
	<path fill="#373F47" d="M146.177,86.812v-6.726l0.071-0.659h-0.376c-0.177,0-0.388,0.023-0.658,0.046   c-0.257,0.036-0.527,0.084-0.798,0.166v0.258l0.798,0.317v2.065c-0.093-0.023-0.223-0.045-0.375-0.059   c-0.152-0.012-0.293-0.023-0.435-0.023c-0.387,0-0.739,0.07-1.079,0.212c-0.341,0.141-0.646,0.353-0.894,0.633   c-0.258,0.271-0.456,0.612-0.609,1.022c-0.153,0.399-0.223,0.869-0.223,1.396c0,0.389,0.059,0.74,0.164,1.058   c0.116,0.317,0.271,0.587,0.457,0.81c0.199,0.212,0.423,0.388,0.682,0.505c0.258,0.117,0.539,0.177,0.834,0.177   c0.117,0,0.245-0.012,0.387-0.048c0.141-0.035,0.271-0.082,0.411-0.141c0.13-0.059,0.258-0.129,0.376-0.211   c0.129-0.082,0.234-0.177,0.328-0.271c0.059,0.117,0.142,0.247,0.234,0.376c0.106,0.128,0.212,0.234,0.329,0.33   c0.164-0.084,0.316-0.178,0.446-0.26c0.13-0.094,0.258-0.187,0.375-0.293c-0.117-0.095-0.199-0.212-0.27-0.328   C146.283,87.047,146.225,86.93,146.177,86.812z M145.227,86.871c-0.071,0.059-0.141,0.105-0.235,0.152   c-0.094,0.048-0.188,0.083-0.293,0.118s-0.211,0.059-0.329,0.082c-0.117,0.012-0.223,0.023-0.34,0.023   c-0.188,0-0.364-0.035-0.529-0.129c-0.175-0.083-0.316-0.212-0.445-0.375c-0.129-0.166-0.234-0.377-0.316-0.624   c-0.083-0.245-0.118-0.528-0.118-0.845c0-0.411,0.047-0.763,0.13-1.069c0.094-0.305,0.211-0.55,0.362-0.751   c0.165-0.199,0.354-0.352,0.564-0.445c0.211-0.105,0.446-0.152,0.692-0.152c0.165,0,0.317,0.012,0.47,0.035   c0.164,0.034,0.294,0.059,0.388,0.094V86.871z"/>
	<path fill="#373F47" d="M151.47,82.773c-0.176-0.188-0.388-0.328-0.634-0.433c-0.258-0.105-0.54-0.154-0.856-0.154   c-0.305,0-0.611,0.07-0.905,0.211c-0.293,0.13-0.551,0.342-0.773,0.6c-0.235,0.27-0.423,0.599-0.564,0.985   c-0.141,0.399-0.211,0.857-0.211,1.363c0,0.41,0.07,0.785,0.188,1.114c0.13,0.329,0.305,0.611,0.528,0.846   c0.223,0.235,0.471,0.411,0.774,0.539c0.294,0.131,0.601,0.189,0.939,0.189c0.306,0,0.587-0.023,0.847-0.083   c0.245-0.059,0.457-0.129,0.633-0.223c0.177-0.095,0.306-0.211,0.399-0.329c0.095-0.117,0.142-0.246,0.142-0.388   c0-0.058,0-0.117-0.012-0.175c-0.012-0.061-0.024-0.105-0.035-0.13c-0.105,0.069-0.236,0.142-0.365,0.211   c-0.141,0.059-0.27,0.117-0.423,0.153c-0.14,0.047-0.28,0.082-0.435,0.105c-0.151,0.023-0.293,0.035-0.434,0.035   c-0.246,0-0.47-0.046-0.681-0.141c-0.212-0.095-0.398-0.234-0.553-0.411c-0.152-0.177-0.28-0.388-0.375-0.646   c-0.082-0.259-0.129-0.553-0.129-0.882h3.463c0.013-0.14,0.013-0.281,0.013-0.399c0-0.128,0-0.233,0-0.352   c0-0.34-0.047-0.634-0.141-0.916C151.775,83.197,151.646,82.974,151.47,82.773z M148.558,84.522c0-0.234,0.036-0.445,0.118-0.657   c0.083-0.2,0.176-0.388,0.306-0.54c0.117-0.151,0.259-0.282,0.423-0.363c0.164-0.094,0.316-0.142,0.48-0.142   c0.165,0,0.329,0.036,0.47,0.105c0.153,0.071,0.271,0.177,0.376,0.317s0.188,0.317,0.246,0.527   c0.059,0.212,0.096,0.459,0.096,0.752H148.558z"/>
	<path fill="#373F47" d="M155.857,82.21c-0.199,0-0.375,0.047-0.54,0.131c-0.164,0.081-0.34,0.21-0.492,0.386l-0.329,0.364h-0.012   v-0.822h-0.281c-0.177,0-0.388,0.012-0.635,0.047c-0.245,0.035-0.506,0.082-0.774,0.164v0.26l0.763,0.316v3.968   c0,0.07-0.012,0.143-0.047,0.2c-0.047,0.07-0.094,0.129-0.152,0.176c-0.059,0.059-0.117,0.106-0.199,0.153   c-0.07,0.048-0.142,0.081-0.223,0.105v0.198c0.127,0.048,0.281,0.071,0.446,0.083c0.152,0.012,0.316,0.023,0.492,0.023   c0.164,0,0.317-0.012,0.458-0.012c0.128-0.012,0.259-0.023,0.376-0.035s0.223-0.035,0.316-0.06   c0.106-0.022,0.212-0.058,0.305-0.093v-0.223l-0.81-0.177v-3.733c0.328-0.317,0.67-0.481,1.033-0.481   c0.13,0,0.246,0.024,0.376,0.071c0.129,0.046,0.246,0.116,0.352,0.198c0.06-0.105,0.106-0.222,0.142-0.352s0.047-0.247,0.047-0.353   C156.469,82.374,156.269,82.21,155.857,82.21z"/>
	<polygon fill="#373F47" points="162.995,82.551 163.676,82.868 162.468,86.589 162.455,86.589 161.398,82.809 161.738,82.551    161.738,82.269 159.742,82.269 159.742,82.551 160.388,82.856 159.226,86.601 159.214,86.601 158.17,82.833 158.839,82.551    158.839,82.269 156.572,82.269 156.572,82.551 157.078,82.903 158.827,88.022 159.355,87.999 160.718,83.701 160.729,83.701    162.021,88.022 162.514,87.999 164.485,82.809 164.814,82.551 164.814,82.269 162.995,82.269  "/>
	<path fill="#373F47" d="M165.938,81.001c0.06,0.059,0.13,0.105,0.201,0.142c0.081,0.034,0.164,0.047,0.246,0.047   c0.094,0,0.177-0.013,0.259-0.06c0.082-0.036,0.151-0.082,0.21-0.153c0.06-0.058,0.106-0.14,0.143-0.223   c0.035-0.094,0.047-0.188,0.047-0.294c0-0.094-0.012-0.187-0.047-0.257c-0.036-0.083-0.071-0.153-0.13-0.2   c-0.059-0.059-0.13-0.105-0.199-0.13c-0.07-0.034-0.152-0.047-0.235-0.047c-0.105,0-0.2,0.024-0.282,0.06s-0.152,0.082-0.212,0.152   c-0.059,0.07-0.105,0.141-0.128,0.224c-0.036,0.081-0.046,0.165-0.046,0.257c0,0.096,0.01,0.189,0.046,0.271   C165.844,80.87,165.891,80.942,165.938,81.001z"/>
	<path fill="#373F47" d="M166.854,82.903l0.06-0.635h-0.375c-0.165,0-0.377,0.012-0.623,0.059c-0.247,0.036-0.505,0.083-0.775,0.164   v0.248l0.751,0.316v3.968c0,0.07-0.012,0.143-0.047,0.2c-0.034,0.07-0.08,0.129-0.14,0.176c-0.059,0.059-0.13,0.106-0.201,0.153   c-0.081,0.048-0.152,0.081-0.233,0.105v0.198c0.128,0.048,0.282,0.071,0.445,0.083c0.153,0.012,0.306,0.023,0.435,0.023   c0.153,0,0.282-0.012,0.412-0.012c0.117-0.012,0.233-0.023,0.34-0.035c0.117-0.012,0.21-0.035,0.315-0.06   c0.096-0.022,0.189-0.058,0.295-0.093v-0.223l-0.658-0.177V82.903z"/>
	<path fill="#373F47" d="M169.947,80.003c-0.06-0.059-0.119-0.105-0.202-0.13c-0.068-0.034-0.151-0.047-0.223-0.047   c-0.105,0-0.199,0.024-0.28,0.06c-0.083,0.035-0.154,0.082-0.212,0.152c-0.059,0.07-0.106,0.141-0.142,0.224   c-0.023,0.081-0.035,0.165-0.035,0.257c0,0.096,0.012,0.189,0.047,0.271c0.023,0.081,0.071,0.153,0.13,0.212   c0.058,0.059,0.116,0.105,0.2,0.142c0.07,0.034,0.152,0.047,0.245,0.047c0.094,0,0.177-0.013,0.258-0.06   c0.083-0.036,0.143-0.082,0.214-0.153c0.057-0.058,0.093-0.14,0.127-0.223c0.035-0.094,0.047-0.188,0.047-0.294   c0-0.094-0.012-0.187-0.047-0.257C170.04,80.12,170.004,80.05,169.947,80.003z"/>
	<path fill="#373F47" d="M169.007,82.327c-0.247,0.036-0.505,0.083-0.775,0.164v0.248l0.752,0.316v5.412   c0,0.294-0.035,0.553-0.095,0.775c-0.047,0.223-0.129,0.411-0.223,0.563c-0.094,0.153-0.212,0.259-0.329,0.341   c-0.129,0.07-0.258,0.105-0.387,0.105v0.188c0.081,0.094,0.176,0.165,0.293,0.212c0.117,0.048,0.234,0.07,0.376,0.07   c0.176,0,0.353-0.034,0.517-0.117c0.165-0.083,0.306-0.223,0.424-0.423c0.117-0.199,0.21-0.458,0.28-0.774   c0.07-0.329,0.107-0.729,0.107-1.21v-5.272l0.068-0.657h-0.388C169.464,82.269,169.252,82.28,169.007,82.327z"/>
	<path fill="#373F47" d="M174.641,85.439c-0.094-0.118-0.224-0.224-0.364-0.317c-0.152-0.094-0.329-0.188-0.54-0.271l-0.634-0.246   c-0.177-0.071-0.329-0.129-0.447-0.2c-0.115-0.059-0.211-0.129-0.28-0.211c-0.071-0.07-0.117-0.14-0.154-0.235   c-0.021-0.082-0.034-0.176-0.034-0.281c0-0.094,0.024-0.188,0.059-0.281c0.047-0.083,0.118-0.165,0.212-0.235   c0.093-0.059,0.198-0.118,0.341-0.152c0.14-0.035,0.305-0.059,0.493-0.059c0.222,0,0.458,0.047,0.692,0.129   c0.246,0.082,0.457,0.188,0.646,0.317c0.012-0.083,0.035-0.165,0.047-0.247c0.012-0.07,0.012-0.152,0.012-0.246   c0-0.105-0.023-0.212-0.07-0.307c-0.047-0.081-0.13-0.163-0.235-0.223c-0.105-0.059-0.245-0.117-0.41-0.139   c-0.164-0.037-0.364-0.061-0.599-0.061c-0.306,0-0.588,0.047-0.833,0.141c-0.26,0.095-0.471,0.224-0.646,0.376   c-0.177,0.153-0.317,0.34-0.423,0.552c-0.095,0.2-0.142,0.422-0.142,0.657c0,0.341,0.094,0.622,0.271,0.869   c0.188,0.247,0.446,0.446,0.786,0.587l0.587,0.246c0.2,0.083,0.365,0.165,0.481,0.235c0.13,0.082,0.236,0.153,0.318,0.235   c0.069,0.081,0.128,0.163,0.162,0.246c0.037,0.083,0.049,0.177,0.049,0.281c0,0.212-0.083,0.376-0.247,0.518   c-0.177,0.142-0.422,0.211-0.752,0.211c-0.317,0-0.599-0.058-0.869-0.188c-0.258-0.118-0.527-0.305-0.786-0.553   c-0.035,0.071-0.059,0.143-0.081,0.224c-0.013,0.094-0.024,0.176-0.024,0.259c0,0.316,0.117,0.562,0.364,0.716   c0.234,0.164,0.611,0.247,1.127,0.247c0.329,0,0.634-0.047,0.893-0.142c0.271-0.094,0.505-0.223,0.693-0.387   c0.187-0.153,0.34-0.34,0.445-0.541c0.105-0.211,0.153-0.435,0.153-0.656c0-0.166-0.024-0.329-0.059-0.471   C174.794,85.697,174.723,85.568,174.641,85.439z"/>
	<path fill="#373F47" d="M176.835,86.577c-0.059,0-0.13,0.012-0.201,0.048c-0.069,0.023-0.14,0.059-0.198,0.106   c-0.071,0.045-0.13,0.093-0.188,0.163c-0.059,0.06-0.118,0.129-0.165,0.199l0.411,0.518c0,0.34-0.059,0.658-0.188,0.928   c-0.116,0.27-0.305,0.54-0.539,0.787l0.316,0.082c0.13-0.035,0.271-0.118,0.423-0.247c0.165-0.117,0.316-0.281,0.457-0.471   c0.143-0.199,0.259-0.421,0.353-0.668c0.105-0.247,0.153-0.505,0.153-0.775c0-0.2-0.06-0.365-0.177-0.493   C177.175,86.637,177.022,86.577,176.835,86.577z"/>
	<path fill="#373F47" d="M185.736,86.425c-0.129,0.307-0.306,0.54-0.54,0.693c-0.247,0.142-0.575,0.211-1.01,0.211   c-0.271,0-0.54-0.058-0.81-0.188c-0.259-0.118-0.493-0.305-0.694-0.564c-0.21-0.258-0.375-0.575-0.493-0.975   c-0.127-0.398-0.187-0.869-0.187-1.408c0-0.505,0.06-0.963,0.199-1.361c0.13-0.399,0.294-0.74,0.505-1.01   c0.212-0.282,0.458-0.482,0.729-0.634c0.281-0.142,0.563-0.213,0.856-0.213c0.211,0,0.388,0.024,0.54,0.06s0.282,0.094,0.388,0.176   s0.199,0.188,0.27,0.317c0.071,0.129,0.142,0.282,0.177,0.47l0.047,0.211h0.317l0.094-1.632c-0.212-0.106-0.446-0.188-0.729-0.235   c-0.27-0.058-0.61-0.081-1.009-0.081c-0.307,0-0.611,0.046-0.904,0.129c-0.294,0.095-0.575,0.224-0.834,0.387   c-0.27,0.165-0.505,0.365-0.728,0.599c-0.212,0.246-0.412,0.518-0.564,0.822c-0.164,0.293-0.282,0.635-0.375,0.999   c-0.081,0.352-0.13,0.739-0.13,1.149c0,0.61,0.083,1.15,0.26,1.608c0.165,0.47,0.397,0.857,0.681,1.163   c0.293,0.316,0.621,0.552,1.009,0.704c0.376,0.153,0.786,0.236,1.21,0.236c0.445,0,0.846-0.036,1.197-0.096   c0.341-0.07,0.622-0.164,0.846-0.27l0.116-1.551h-0.316L185.736,86.425z"/>
	<path fill="#373F47" d="M191.897,86.882v-3.968l0.071-0.657h-0.388c-0.165,0-0.363,0.012-0.587,0.059   c-0.224,0.035-0.471,0.082-0.739,0.164v0.247l0.681,0.329v3.804c-0.071,0.047-0.143,0.095-0.224,0.129   c-0.094,0.035-0.188,0.071-0.282,0.105c-0.105,0.036-0.211,0.06-0.317,0.072c-0.117,0.022-0.223,0.034-0.328,0.034   c-0.188,0-0.352-0.023-0.493-0.082s-0.259-0.142-0.364-0.27c-0.094-0.129-0.165-0.294-0.211-0.507   c-0.047-0.199-0.071-0.457-0.071-0.773v-2.654l0.071-0.657h-0.388c-0.164,0-0.352,0.012-0.575,0.059   c-0.224,0.035-0.469,0.082-0.739,0.164v0.247l0.669,0.329v3.005c0,0.342,0.035,0.623,0.105,0.869   c0.082,0.247,0.188,0.447,0.329,0.6c0.141,0.164,0.317,0.27,0.517,0.352c0.199,0.07,0.423,0.106,0.669,0.106   c0.188,0,0.363-0.012,0.528-0.06c0.176-0.035,0.329-0.094,0.481-0.152s0.282-0.129,0.399-0.199s0.211-0.142,0.282-0.212   c0.059,0.13,0.128,0.259,0.224,0.375c0.105,0.117,0.211,0.224,0.327,0.308c0.07-0.036,0.153-0.071,0.223-0.119   c0.082-0.047,0.153-0.094,0.225-0.141c0.07-0.048,0.14-0.094,0.198-0.153c0.06-0.046,0.105-0.093,0.153-0.14   c-0.094-0.095-0.176-0.2-0.258-0.306S191.945,86.977,191.897,86.882z"/>
	<path fill="#373F47" d="M194.936,80.087l0.059-0.659h-0.376c-0.081,0-0.176,0.013-0.281,0.013c-0.106,0.011-0.223,0.022-0.34,0.033   c-0.13,0.024-0.259,0.049-0.388,0.072c-0.13,0.023-0.271,0.057-0.4,0.094v0.258l0.764,0.317v6.809c0,0.07-0.012,0.143-0.047,0.2   c-0.047,0.07-0.094,0.129-0.153,0.176c-0.059,0.059-0.117,0.106-0.198,0.153c-0.07,0.048-0.142,0.081-0.224,0.105v0.198   c0.129,0.048,0.282,0.071,0.435,0.083s0.305,0.023,0.445,0.023c0.154,0,0.282-0.012,0.399-0.012   c0.13-0.012,0.247-0.023,0.352-0.035c0.106-0.012,0.213-0.035,0.317-0.06c0.095-0.022,0.188-0.058,0.294-0.093v-0.223l-0.657-0.177   V80.087z"/>
	<path fill="#373F47" d="M199.102,87.142c-0.152,0.059-0.304,0.082-0.48,0.082c-0.106,0-0.212-0.023-0.294-0.07   c-0.094-0.047-0.164-0.118-0.224-0.211c-0.07-0.105-0.117-0.235-0.151-0.4c-0.036-0.164-0.048-0.363-0.048-0.599   c0-0.223,0-0.435,0-0.657c0-0.234,0.012-0.47,0.012-0.716l0.023-1.479h1.503l0.082-0.634h-1.55l0.047-1.058l-0.387,0.047   l-1.269,1.257v0.388h0.646l-0.035,1.562c-0.012,0.271-0.012,0.552-0.024,0.856c-0.012,0.295-0.012,0.588-0.012,0.869   c0,0.576,0.117,0.986,0.341,1.245c0.235,0.258,0.587,0.388,1.057,0.388c0.8,0,1.222-0.353,1.268-1.046l-0.117-0.047   C199.371,87.012,199.244,87.083,199.102,87.142z"/>
	<path fill="#373F47" d="M204.911,86.882v-3.968l0.071-0.657h-0.388c-0.164,0-0.363,0.012-0.587,0.059   c-0.223,0.035-0.47,0.082-0.74,0.164v0.247l0.682,0.329v3.804c-0.07,0.047-0.141,0.095-0.223,0.129   c-0.095,0.035-0.188,0.071-0.283,0.105c-0.105,0.036-0.211,0.06-0.316,0.072c-0.118,0.022-0.223,0.034-0.329,0.034   c-0.187,0-0.352-0.023-0.493-0.082c-0.141-0.059-0.258-0.142-0.363-0.27c-0.095-0.129-0.165-0.294-0.212-0.507   c-0.047-0.199-0.07-0.457-0.07-0.773v-2.654l0.07-0.657h-0.388c-0.164,0-0.352,0.012-0.574,0.059   c-0.224,0.035-0.47,0.082-0.74,0.164v0.247l0.669,0.329v3.005c0,0.342,0.036,0.623,0.105,0.869c0.083,0.247,0.188,0.447,0.329,0.6   c0.142,0.164,0.316,0.27,0.518,0.352c0.198,0.07,0.422,0.106,0.668,0.106c0.188,0,0.363-0.012,0.528-0.06   c0.177-0.035,0.328-0.094,0.481-0.152c0.154-0.059,0.282-0.129,0.4-0.199c0.117-0.07,0.211-0.142,0.281-0.212   c0.059,0.13,0.129,0.259,0.224,0.375c0.105,0.117,0.211,0.224,0.328,0.308c0.07-0.036,0.153-0.071,0.223-0.119   c0.083-0.047,0.152-0.094,0.224-0.141c0.07-0.048,0.142-0.094,0.199-0.153c0.059-0.046,0.105-0.093,0.153-0.14   c-0.095-0.095-0.177-0.2-0.259-0.306S204.958,86.977,204.911,86.882z"/>
	<path fill="#373F47" d="M211.085,86.882v-3.968l0.07-0.657h-0.388c-0.164,0-0.364,0.012-0.587,0.059   c-0.224,0.035-0.47,0.082-0.74,0.164v0.247l0.682,0.329v3.804c-0.07,0.047-0.142,0.095-0.224,0.129   c-0.094,0.035-0.188,0.071-0.281,0.105c-0.106,0.036-0.212,0.06-0.317,0.072c-0.117,0.022-0.224,0.034-0.329,0.034   c-0.187,0-0.352-0.023-0.492-0.082s-0.26-0.142-0.365-0.27c-0.094-0.129-0.164-0.294-0.211-0.507   c-0.047-0.199-0.07-0.457-0.07-0.773v-2.654l0.07-0.657h-0.388c-0.165,0-0.352,0.012-0.575,0.059   c-0.223,0.035-0.47,0.082-0.738,0.164v0.247l0.668,0.329v3.005c0,0.342,0.035,0.623,0.105,0.869c0.083,0.247,0.188,0.447,0.329,0.6   c0.142,0.164,0.316,0.27,0.518,0.352c0.198,0.07,0.421,0.106,0.669,0.106c0.188,0,0.363-0.012,0.527-0.06   c0.177-0.035,0.329-0.094,0.481-0.152c0.153-0.059,0.282-0.129,0.399-0.199s0.212-0.142,0.282-0.212   c0.06,0.13,0.129,0.259,0.223,0.375c0.106,0.117,0.212,0.224,0.328,0.308c0.071-0.036,0.153-0.071,0.224-0.119   c0.083-0.047,0.152-0.094,0.224-0.141c0.07-0.048,0.141-0.094,0.199-0.153c0.059-0.046,0.105-0.093,0.153-0.14   c-0.095-0.095-0.177-0.2-0.26-0.306C211.19,87.083,211.132,86.977,211.085,86.882z"/>
	<path fill="#373F47" d="M215.46,82.21c-0.198,0-0.375,0.047-0.539,0.131c-0.164,0.081-0.341,0.21-0.493,0.386l-0.328,0.364h-0.013   v-0.822h-0.281c-0.178,0-0.388,0.012-0.635,0.047c-0.245,0.035-0.505,0.082-0.775,0.164v0.26l0.764,0.316v3.968   c0,0.07-0.012,0.143-0.047,0.2c-0.047,0.07-0.094,0.129-0.152,0.176c-0.059,0.059-0.118,0.106-0.199,0.153   c-0.071,0.048-0.142,0.081-0.223,0.105v0.198c0.128,0.048,0.281,0.071,0.446,0.083c0.151,0.012,0.316,0.023,0.492,0.023   c0.164,0,0.316-0.012,0.459-0.012c0.127-0.012,0.257-0.023,0.375-0.035c0.117-0.012,0.223-0.035,0.316-0.06   c0.106-0.022,0.212-0.058,0.306-0.093v-0.223l-0.812-0.177v-3.733c0.33-0.317,0.671-0.481,1.035-0.481   c0.129,0,0.245,0.024,0.375,0.071c0.13,0.046,0.246,0.116,0.352,0.198c0.06-0.105,0.106-0.222,0.143-0.352   c0.034-0.13,0.047-0.247,0.047-0.353C216.072,82.374,215.872,82.21,215.46,82.21z"/>
	<path fill="#373F47" d="M222.89,82.773c-0.177-0.188-0.388-0.328-0.634-0.433c-0.258-0.105-0.54-0.154-0.857-0.154   c-0.304,0-0.61,0.07-0.903,0.211c-0.294,0.13-0.552,0.342-0.774,0.6c-0.235,0.27-0.423,0.599-0.564,0.985   c-0.141,0.399-0.21,0.857-0.21,1.363c0,0.41,0.069,0.785,0.187,1.114c0.129,0.329,0.306,0.611,0.528,0.846   c0.224,0.235,0.47,0.411,0.775,0.539c0.293,0.131,0.599,0.189,0.938,0.189c0.306,0,0.588-0.023,0.846-0.083   c0.247-0.059,0.457-0.129,0.635-0.223c0.176-0.095,0.304-0.211,0.398-0.329c0.095-0.117,0.142-0.246,0.142-0.388   c0-0.058,0-0.117-0.012-0.175c-0.012-0.061-0.023-0.105-0.035-0.13c-0.106,0.069-0.236,0.142-0.365,0.211   c-0.141,0.059-0.271,0.117-0.423,0.153c-0.14,0.047-0.281,0.082-0.434,0.105s-0.294,0.035-0.435,0.035   c-0.247,0-0.47-0.046-0.681-0.141s-0.398-0.234-0.553-0.411c-0.152-0.177-0.28-0.388-0.376-0.646   c-0.081-0.259-0.128-0.553-0.128-0.882h3.464c0.012-0.14,0.012-0.281,0.012-0.399c0-0.128,0-0.233,0-0.352   c0-0.34-0.047-0.634-0.142-0.916C223.195,83.197,223.065,82.974,222.89,82.773z M219.978,84.522c0-0.234,0.036-0.445,0.118-0.657   c0.083-0.2,0.177-0.388,0.306-0.54c0.116-0.151,0.259-0.282,0.423-0.363c0.164-0.094,0.317-0.142,0.481-0.142   s0.328,0.036,0.469,0.105c0.153,0.071,0.271,0.177,0.376,0.317s0.188,0.317,0.246,0.527c0.059,0.212,0.096,0.459,0.096,0.752   H219.978z"/>
	<path fill="#373F47" d="M229.286,87.364v-3.287c0-0.294-0.047-0.563-0.117-0.798c-0.083-0.224-0.2-0.411-0.342-0.564   c-0.14-0.153-0.317-0.27-0.515-0.352c-0.201-0.083-0.424-0.118-0.67-0.118c-0.341,0-0.669,0.059-0.975,0.177   c-0.307,0.117-0.563,0.281-0.764,0.481v-0.635h-0.281c-0.177,0-0.388,0.012-0.635,0.047c-0.246,0.035-0.505,0.082-0.774,0.164v0.26   l0.763,0.316v3.968c0,0.07-0.012,0.143-0.047,0.2c-0.046,0.07-0.093,0.129-0.152,0.176c-0.059,0.059-0.117,0.106-0.199,0.153   c-0.07,0.048-0.141,0.081-0.223,0.105v0.198c0.128,0.048,0.281,0.071,0.435,0.083c0.152,0.012,0.304,0.023,0.445,0.023   c0.153,0,0.281-0.012,0.399-0.012c0.13-0.012,0.246-0.023,0.352-0.035s0.211-0.035,0.317-0.06c0.094-0.022,0.188-0.058,0.294-0.093   v-0.223l-0.658-0.177v-3.945c0.13-0.094,0.306-0.188,0.528-0.258c0.211-0.07,0.446-0.105,0.682-0.105   c0.175,0,0.329,0.023,0.48,0.082c0.141,0.06,0.259,0.153,0.364,0.281c0.105,0.118,0.188,0.282,0.247,0.493   c0.047,0.2,0.083,0.446,0.083,0.729v2.241c0,0.212-0.036,0.378-0.106,0.495c-0.06,0.129-0.165,0.211-0.317,0.281v0.198   c0.117,0.048,0.246,0.071,0.376,0.083c0.141,0.012,0.271,0.023,0.388,0.023c0.493,0,0.903-0.07,1.232-0.199v-0.223L229.286,87.364z   "/>
	<path fill="#373F47" d="M66.33,93.574c-0.2,0-0.4,0.012-0.599,0.048c-0.211,0.023-0.411,0.081-0.634,0.14v0.247l0.717,0.223   l-1.292,5.061H64.51l-1.139-4.756c-0.083-0.328,0-0.527,0.223-0.61v-0.223c-0.117-0.034-0.258-0.069-0.434-0.093   c-0.177-0.013-0.341-0.024-0.517-0.024c-0.224,0-0.435,0.012-0.646,0.048c-0.2,0.022-0.411,0.069-0.634,0.141v0.258l0.622,0.187   l-1.244,5.086h-0.012l-1.28-4.732c-0.047-0.188-0.047-0.341,0-0.446c0.059-0.105,0.176-0.188,0.364-0.224V93.68   c-0.188-0.046-0.352-0.082-0.516-0.094c-0.165-0.012-0.341-0.012-0.529-0.012c-0.188,0-0.387,0.012-0.598,0.048   c-0.2,0.034-0.4,0.081-0.599,0.152v0.246l0.646,0.198l2.196,7.01l0.446-0.046l1.621-6.152h0.012l1.632,6.198l0.458-0.046   l1.925-6.458c0.059-0.199,0.129-0.364,0.224-0.493c0.093-0.117,0.211-0.234,0.364-0.329v-0.211   c-0.118-0.035-0.235-0.069-0.353-0.094C66.623,93.586,66.494,93.574,66.33,93.574z"/>
	<path fill="#373F47" d="M71.16,96.039c-0.176-0.188-0.387-0.328-0.634-0.434c-0.258-0.104-0.541-0.151-0.857-0.151   c-0.306,0-0.61,0.068-0.904,0.21c-0.293,0.13-0.552,0.342-0.774,0.599c-0.235,0.271-0.424,0.6-0.564,0.986   c-0.14,0.399-0.211,0.857-0.211,1.362c0,0.41,0.071,0.786,0.188,1.115c0.13,0.328,0.306,0.609,0.529,0.846   c0.223,0.234,0.469,0.411,0.775,0.539c0.293,0.13,0.598,0.188,0.939,0.188c0.305,0,0.586-0.024,0.845-0.083   c0.247-0.059,0.458-0.127,0.634-0.223c0.176-0.095,0.305-0.212,0.399-0.329c0.094-0.117,0.141-0.246,0.141-0.387   c0-0.059,0-0.117-0.012-0.177c-0.012-0.059-0.023-0.105-0.035-0.128c-0.106,0.069-0.235,0.14-0.364,0.211   c-0.142,0.059-0.271,0.118-0.423,0.151c-0.141,0.048-0.282,0.083-0.435,0.105c-0.152,0.024-0.293,0.036-0.434,0.036   c-0.247,0-0.47-0.047-0.682-0.142c-0.211-0.093-0.399-0.234-0.552-0.41c-0.152-0.175-0.282-0.387-0.375-0.646   c-0.083-0.259-0.129-0.553-0.129-0.88h3.463C71.7,98.26,71.7,98.118,71.7,98.001c0-0.13,0-0.235,0-0.353   c0-0.341-0.047-0.635-0.142-0.915C71.465,96.463,71.336,96.24,71.16,96.039z M68.248,97.789c0-0.234,0.035-0.446,0.118-0.658   c0.082-0.199,0.176-0.386,0.305-0.54c0.118-0.151,0.258-0.28,0.423-0.362c0.165-0.096,0.317-0.143,0.481-0.143   c0.165,0,0.329,0.035,0.47,0.106c0.152,0.07,0.27,0.176,0.375,0.317c0.106,0.141,0.188,0.317,0.247,0.527   c0.059,0.212,0.094,0.459,0.094,0.752H68.248z"/>
	<path fill="#373F47" d="M75.29,100.407c-0.152,0.059-0.305,0.082-0.481,0.082c-0.105,0-0.212-0.023-0.293-0.07   c-0.094-0.047-0.165-0.116-0.223-0.211c-0.071-0.106-0.118-0.234-0.153-0.399c-0.035-0.164-0.047-0.363-0.047-0.599   c0-0.223,0-0.435,0-0.657c0-0.235,0.012-0.471,0.012-0.717l0.023-1.479h1.503l0.082-0.635h-1.55l0.047-1.057l-0.388,0.047   l-1.268,1.256v0.389H73.2l-0.035,1.561c-0.012,0.27-0.012,0.553-0.024,0.857c-0.012,0.293-0.012,0.588-0.012,0.869   c0,0.575,0.117,0.986,0.341,1.243c0.234,0.261,0.587,0.388,1.057,0.388c0.798,0,1.221-0.351,1.268-1.045l-0.117-0.046   C75.56,100.278,75.431,100.349,75.29,100.407z"/>
	<path fill="#373F47" d="M80.278,96.039c-0.176-0.188-0.387-0.328-0.634-0.434c-0.258-0.104-0.541-0.151-0.857-0.151   c-0.305,0-0.61,0.068-0.904,0.21c-0.293,0.13-0.552,0.342-0.775,0.599c-0.235,0.271-0.422,0.6-0.563,0.986   c-0.141,0.399-0.211,0.857-0.211,1.362c0,0.41,0.07,0.786,0.188,1.115c0.129,0.328,0.306,0.609,0.529,0.846   c0.223,0.234,0.469,0.411,0.774,0.539c0.294,0.13,0.599,0.188,0.939,0.188c0.305,0,0.587-0.024,0.845-0.083   c0.247-0.059,0.458-0.127,0.634-0.223c0.176-0.095,0.305-0.212,0.399-0.329s0.141-0.246,0.141-0.387c0-0.059,0-0.117-0.012-0.177   c-0.012-0.059-0.023-0.105-0.035-0.128c-0.106,0.069-0.235,0.14-0.364,0.211c-0.141,0.059-0.27,0.118-0.422,0.151   c-0.141,0.048-0.282,0.083-0.435,0.105c-0.153,0.024-0.293,0.036-0.435,0.036c-0.247,0-0.47-0.047-0.681-0.142   c-0.211-0.093-0.399-0.234-0.551-0.41c-0.152-0.175-0.282-0.387-0.376-0.646c-0.083-0.259-0.129-0.553-0.129-0.88h3.464   c0.012-0.141,0.012-0.282,0.012-0.399c0-0.13,0-0.235,0-0.353c0-0.341-0.047-0.635-0.141-0.915   C80.583,96.463,80.454,96.24,80.278,96.039z M77.366,97.789c0-0.234,0.036-0.446,0.118-0.658c0.082-0.199,0.176-0.386,0.305-0.54   c0.118-0.151,0.258-0.28,0.422-0.362c0.165-0.096,0.318-0.143,0.481-0.143c0.165,0,0.329,0.035,0.47,0.106   c0.152,0.07,0.27,0.176,0.375,0.317c0.106,0.141,0.188,0.317,0.247,0.527c0.059,0.212,0.094,0.459,0.094,0.752H77.366z"/>
	<path fill="#373F47" d="M86.674,97.343c0-0.293-0.047-0.562-0.118-0.798c-0.082-0.223-0.199-0.412-0.34-0.564   c-0.141-0.152-0.317-0.27-0.517-0.353c-0.199-0.081-0.422-0.117-0.669-0.117c-0.34,0-0.669,0.061-0.975,0.178   c-0.305,0.116-0.564,0.28-0.763,0.48v-0.635h-0.282c-0.176,0-0.387,0.013-0.634,0.047c-0.247,0.035-0.505,0.083-0.775,0.165v0.26   l0.763,0.316v3.968c0,0.07-0.012,0.141-0.047,0.199c-0.047,0.07-0.094,0.13-0.152,0.176c-0.059,0.061-0.118,0.107-0.2,0.154   c-0.07,0.047-0.141,0.08-0.223,0.105v0.198c0.129,0.047,0.282,0.071,0.434,0.082c0.153,0.012,0.306,0.023,0.447,0.023   c0.152,0,0.282-0.012,0.399-0.012c0.129-0.012,0.247-0.022,0.353-0.034c0.105-0.013,0.211-0.034,0.316-0.06   c0.094-0.023,0.188-0.059,0.293-0.093v-0.224l-0.657-0.176v-3.946c0.129-0.094,0.305-0.187,0.528-0.257   c0.211-0.07,0.446-0.105,0.681-0.105c0.176,0,0.329,0.023,0.481,0.082c0.141,0.059,0.258,0.152,0.364,0.28   c0.105,0.117,0.188,0.283,0.246,0.495c0.047,0.198,0.082,0.445,0.082,0.727v2.243c0,0.211-0.035,0.375-0.105,0.494   c-0.059,0.129-0.165,0.21-0.318,0.281v0.198c0.118,0.047,0.247,0.071,0.376,0.082c0.141,0.012,0.27,0.023,0.388,0.023   c0.493,0,0.904-0.07,1.232-0.198v-0.224l-0.61-0.176V97.343z"/>
	<path fill="#373F47" d="M91.438,98.704c-0.094-0.117-0.223-0.223-0.364-0.316c-0.152-0.095-0.328-0.188-0.54-0.27L89.9,97.871   c-0.176-0.07-0.329-0.129-0.446-0.199c-0.118-0.058-0.212-0.129-0.282-0.212c-0.07-0.069-0.117-0.141-0.153-0.234   c-0.023-0.082-0.035-0.176-0.035-0.281c0-0.094,0.023-0.188,0.059-0.282c0.047-0.083,0.118-0.164,0.211-0.234   c0.094-0.06,0.2-0.117,0.34-0.152c0.141-0.035,0.306-0.059,0.494-0.059c0.223,0,0.458,0.046,0.692,0.129   c0.247,0.082,0.458,0.188,0.646,0.316c0.012-0.083,0.035-0.164,0.047-0.246c0.012-0.07,0.012-0.153,0.012-0.247   c0-0.106-0.024-0.212-0.071-0.306c-0.047-0.081-0.129-0.165-0.235-0.224c-0.105-0.059-0.247-0.117-0.41-0.139   c-0.165-0.035-0.364-0.06-0.599-0.06c-0.305,0-0.587,0.047-0.833,0.14c-0.258,0.096-0.469,0.224-0.646,0.376   c-0.176,0.153-0.317,0.342-0.423,0.553c-0.094,0.199-0.141,0.422-0.141,0.658c0,0.34,0.095,0.621,0.27,0.869   c0.188,0.245,0.446,0.444,0.787,0.585l0.587,0.247c0.199,0.082,0.363,0.165,0.481,0.235c0.129,0.081,0.234,0.152,0.316,0.234   c0.071,0.083,0.129,0.164,0.165,0.246c0.036,0.082,0.047,0.178,0.047,0.283c0,0.21-0.082,0.375-0.247,0.516   c-0.176,0.141-0.422,0.212-0.751,0.212c-0.317,0-0.599-0.06-0.868-0.188c-0.259-0.117-0.529-0.306-0.787-0.552   c-0.035,0.07-0.059,0.141-0.082,0.223c-0.012,0.095-0.023,0.177-0.023,0.258c0,0.319,0.118,0.563,0.364,0.717   c0.235,0.164,0.611,0.247,1.127,0.247c0.329,0,0.634-0.047,0.893-0.142c0.27-0.094,0.504-0.222,0.692-0.386   c0.188-0.153,0.341-0.342,0.447-0.542c0.105-0.211,0.152-0.435,0.152-0.657c0-0.164-0.024-0.328-0.059-0.469   C91.59,98.963,91.521,98.834,91.438,98.704z"/>
	<path fill="#373F47" d="M96.155,100.208c-0.106,0.059-0.211,0.105-0.329,0.152c-0.117,0.035-0.234,0.07-0.352,0.093   c-0.117,0.024-0.234,0.036-0.352,0.036c-0.224,0-0.447-0.048-0.646-0.129c-0.2-0.094-0.375-0.223-0.528-0.399   c-0.152-0.176-0.271-0.388-0.353-0.656c-0.082-0.26-0.129-0.565-0.129-0.917c0-0.339,0.036-0.646,0.118-0.916   c0.082-0.257,0.188-0.493,0.329-0.67c0.14-0.187,0.293-0.329,0.481-0.434c0.176-0.093,0.375-0.14,0.575-0.14   c0.247,0,0.481,0.047,0.705,0.14c0.211,0.095,0.435,0.223,0.658,0.399c0.047-0.093,0.083-0.199,0.106-0.295   c0.023-0.092,0.035-0.197,0.035-0.315c0-0.095-0.023-0.188-0.07-0.27c-0.036-0.083-0.106-0.165-0.211-0.224   c-0.094-0.059-0.223-0.104-0.388-0.142c-0.165-0.034-0.364-0.057-0.599-0.057c-0.388,0-0.751,0.068-1.081,0.223   c-0.34,0.14-0.634,0.351-0.88,0.622c-0.247,0.269-0.447,0.597-0.586,0.986c-0.141,0.387-0.212,0.821-0.212,1.303   c0,0.411,0.059,0.774,0.188,1.115c0.129,0.328,0.293,0.61,0.517,0.845c0.211,0.235,0.458,0.424,0.74,0.552   c0.293,0.13,0.587,0.188,0.916,0.188c0.282,0,0.529-0.024,0.74-0.071c0.211-0.059,0.387-0.129,0.528-0.211   c0.153-0.093,0.259-0.198,0.33-0.315c0.082-0.118,0.117-0.249,0.117-0.389c0-0.116-0.024-0.212-0.059-0.294   C96.367,100.09,96.273,100.149,96.155,100.208z"/>
	<path fill="#373F47" d="M102.289,97.343c0-0.293-0.036-0.562-0.118-0.798c-0.07-0.223-0.188-0.412-0.329-0.564   c-0.141-0.152-0.316-0.27-0.516-0.353c-0.2-0.081-0.434-0.117-0.681-0.117c-0.364,0-0.693,0.061-0.963,0.166   c-0.281,0.117-0.528,0.28-0.739,0.48v-2.806L99,92.694h-0.375c-0.199,0-0.422,0.022-0.657,0.047   c-0.235,0.035-0.481,0.08-0.751,0.164v0.258l0.763,0.316v6.811c0,0.07-0.012,0.141-0.047,0.199c-0.035,0.07-0.082,0.13-0.141,0.176   c-0.059,0.061-0.129,0.107-0.2,0.154c-0.082,0.047-0.152,0.08-0.234,0.105v0.198c0.128,0.047,0.281,0.071,0.445,0.082   c0.153,0.012,0.306,0.023,0.435,0.023c0.152,0,0.281-0.012,0.411-0.012c0.117-0.012,0.235-0.022,0.34-0.034   c0.117-0.013,0.211-0.034,0.317-0.06c0.094-0.023,0.188-0.059,0.293-0.093v-0.224l-0.657-0.176v-3.946   c0.07-0.046,0.153-0.094,0.235-0.14c0.094-0.047,0.188-0.082,0.293-0.117c0.094-0.035,0.211-0.06,0.317-0.082   c0.117-0.012,0.235-0.023,0.34-0.023c0.188,0,0.352,0.023,0.505,0.082c0.14,0.059,0.27,0.152,0.375,0.28   c0.094,0.117,0.176,0.283,0.234,0.495c0.059,0.198,0.083,0.445,0.083,0.727v2.243c0,0.211-0.035,0.375-0.106,0.494   c-0.07,0.129-0.176,0.21-0.316,0.281v0.198c0.117,0.047,0.234,0.071,0.375,0.082c0.129,0.012,0.258,0.023,0.375,0.023   c0.258,0,0.481-0.023,0.693-0.046c0.199-0.034,0.386-0.083,0.551-0.152v-0.224l-0.61-0.176V97.343z"/>
	<path fill="#373F47" d="M107.557,100.113l0.035-1.901c0-0.082,0.012-0.188,0.012-0.294c0-0.105,0.011-0.223,0.011-0.328   c0.012-0.118,0.012-0.224,0.012-0.316c0.012-0.105,0.012-0.189,0.012-0.248c0-0.245-0.047-0.469-0.129-0.657   c-0.082-0.188-0.211-0.353-0.376-0.492c-0.164-0.142-0.353-0.236-0.587-0.316c-0.234-0.071-0.504-0.105-0.798-0.105   c-0.34,0-0.634,0.021-0.881,0.08c-0.246,0.047-0.447,0.13-0.599,0.236c-0.152,0.093-0.27,0.223-0.34,0.362   c-0.071,0.154-0.106,0.318-0.106,0.506c0,0.129,0.012,0.247,0.035,0.352c0.246-0.245,0.529-0.434,0.822-0.562   c0.305-0.129,0.61-0.199,0.939-0.199c0.188,0,0.34,0.023,0.469,0.059c0.141,0.047,0.247,0.129,0.329,0.234   c0.083,0.117,0.142,0.269,0.188,0.469c0.036,0.201,0.059,0.458,0.059,0.775v0.316c-0.481,0-0.916,0.06-1.292,0.153   c-0.375,0.105-0.692,0.246-0.952,0.423c-0.27,0.176-0.468,0.376-0.598,0.61c-0.141,0.223-0.212,0.47-0.212,0.728   c0,0.188,0.036,0.364,0.106,0.517c0.083,0.164,0.177,0.307,0.317,0.424c0.129,0.116,0.282,0.199,0.469,0.269   c0.177,0.059,0.376,0.095,0.599,0.095c0.153,0,0.306-0.013,0.458-0.047c0.165-0.024,0.306-0.059,0.446-0.117   c0.141-0.046,0.259-0.105,0.388-0.177c0.118-0.071,0.211-0.14,0.293-0.224c0.07,0.118,0.152,0.224,0.235,0.329   c0.094,0.094,0.188,0.177,0.305,0.246c0.153-0.069,0.305-0.162,0.446-0.28c0.153-0.105,0.27-0.211,0.353-0.316   c-0.106-0.083-0.2-0.178-0.282-0.283S107.604,100.22,107.557,100.113z M106.664,100.278c-0.071,0.047-0.152,0.082-0.247,0.117   c-0.094,0.046-0.188,0.082-0.293,0.105c-0.094,0.023-0.2,0.047-0.305,0.071c-0.094,0.012-0.188,0.023-0.282,0.023   c-0.305,0-0.528-0.071-0.681-0.212c-0.152-0.141-0.234-0.329-0.234-0.563c0-0.163,0.046-0.306,0.129-0.457   c0.094-0.142,0.223-0.271,0.399-0.376c0.165-0.105,0.376-0.188,0.634-0.26c0.258-0.058,0.552-0.094,0.88-0.094V100.278z"/>
	<path fill="#373F47" d="M113.496,96.11c-0.188-0.21-0.423-0.364-0.681-0.471c-0.259-0.105-0.541-0.164-0.834-0.164   c-0.27,0-0.54,0.059-0.822,0.164c-0.271,0.118-0.506,0.261-0.693,0.435v-0.54h-0.281c-0.176,0-0.376,0.013-0.623,0.047   c-0.247,0.035-0.517,0.083-0.786,0.165v0.26l0.763,0.316v6.738c0,0.07-0.012,0.142-0.047,0.212   c-0.035,0.059-0.082,0.117-0.153,0.176c-0.059,0.059-0.117,0.105-0.199,0.141c-0.071,0.047-0.141,0.083-0.223,0.106v0.198   c0.141,0.036,0.282,0.071,0.434,0.083c0.153,0.012,0.306,0.022,0.446,0.022c0.306,0,0.587-0.011,0.821-0.047   c0.236-0.022,0.458-0.069,0.658-0.14v-0.235l-0.775-0.164v-2.302c0.093,0.047,0.211,0.083,0.353,0.105   c0.141,0.024,0.27,0.036,0.399,0.036c0.376,0,0.739-0.07,1.08-0.211c0.353-0.13,0.658-0.34,0.917-0.623   c0.27-0.281,0.481-0.623,0.634-1.033c0.152-0.423,0.234-0.892,0.234-1.443c0-0.399-0.059-0.751-0.165-1.057   C113.836,96.579,113.683,96.322,113.496,96.11z M112.967,99.292c-0.094,0.293-0.234,0.54-0.398,0.739   c-0.165,0.188-0.365,0.341-0.587,0.422c-0.235,0.095-0.481,0.143-0.74,0.143c-0.141,0-0.282,0-0.411-0.012s-0.246-0.036-0.34-0.071   v-3.979c0.153-0.094,0.317-0.152,0.493-0.199s0.375-0.071,0.587-0.071c0.2,0,0.387,0.036,0.576,0.118   c0.187,0.082,0.351,0.21,0.492,0.376c0.141,0.163,0.259,0.362,0.341,0.609c0.082,0.248,0.129,0.528,0.129,0.846   C113.108,98.622,113.061,98.987,112.967,99.292z"/>
</g>
</svg>