<svg xmlns="http://www.w3.org/2000/svg" xmlns:xlink="http://www.w3.org/1999/xlink" version="1.1" id="Layer_1" x="0px" y="0px" viewBox="0 0 404.3 255.23" style="enable-background:new 0 0 404.3 255.23;" xml:space="preserve" width="404.3"  height="255.23" >
<style type="text/css">
	.st0{fill:#254184;}
</style>
<g>
	<g>
		<g>
			<g>
				<g>
					<path class="st0" d="M134.49,90.87V45.52h12.58v45.35H134.49z"/>
					<path class="st0" d="M183.15,55.62h-17.25v9.62h12.71v9.55h-12.71v5.91h17.25v10.17h-29.82V45.52h29.82V55.62z"/>
					<path class="st0" d="M218.61,45.52h11.82v45.35h-5.01l-24.74-22.54v22.54h-11.96V45.52h5.01l24.87,22.81V45.52z"/>
					<path class="st0" d="M254.25,45.52c16.22,0,25.77,7.35,25.77,21.99c0,14.09-7.97,23.36-25.7,23.36h-18.14V45.52H254.25z        M254.38,80.7c8.79,0,12.78-4.4,12.78-12.5c0-6.94-3.85-12.57-12.92-12.57h-5.5V80.7H254.38z"/>
					<path class="st0" d="M314.71,55.62h-17.25v9.62h12.71v9.55h-12.71v5.91h17.25v10.17h-29.82V45.52h29.82V55.62z"/>
					<path class="st0" d="M350.27,45.52h11.82v45.35h-5.01l-24.74-22.54v22.54h-11.96V45.52h5.01l24.87,22.81V45.52z"/>
				</g>
			</g>
		</g>
		<path class="st0" d="M119.04,76.57c6.13-2.29,9.91-7.09,9.91-15.04c0-10.24-6.18-16.01-21.44-16.01H92.12v45.35h12.58V78.22h1.33    l9.61,12.64h14.96L119.04,76.57z M107.3,68.4h-2.61V55.69h3.3c5.98,0,8.04,2.4,8.04,6.46C116.03,66.82,113.35,68.4,107.3,68.4z"/>
	</g>
	<g>
		<polygon class="st0" points="76.73,45.52 66.12,69.9 55.19,45.52 42.61,45.52 63.71,90.59 68.4,90.59 89.37,45.52   "/>
	</g>
</g>
<g>
	<g>
		<g>
			<path class="st0" d="M99.57,140.6h14.15v10.17H87v-50.34h12.57V140.6z"/>
			<path class="st0" d="M113.18,122.68c0-15.53,8.93-23.15,23.15-23.15c14.43,0,23.36,7.83,23.36,22.88     c0,15.39-9.27,24.25-23.57,24.25C122.39,146.66,113.18,138.49,113.18,122.68z M146.71,122.62c0-8.73-3.71-12.78-10.3-12.78     s-10.3,4.05-10.3,12.85c0,9.07,3.92,13.6,10.24,13.6C142.79,136.29,146.71,131.55,146.71,122.62z"/>
			<path class="st0" d="M200.7,100.43v10.1h-13.26v35.24h-12.57v-35.24h-13.33v-10.1H200.7z"/>
			<path class="st0" d="M235.93,110.52h-17.24v9.62h12.71v9.55h-12.71v5.91h17.24v10.17h-29.82v-45.34h29.82V110.52z"/>
		</g>
	</g>
	<path class="st0" d="M268.4,131.47c6.13-2.29,9.91-7.09,9.91-15.04c0-10.24-6.18-16.01-21.44-16.01h-15.39v45.35h12.58v-12.64h1.33   l9.61,12.64h14.96L268.4,131.47z M256.67,123.3h-2.61v-12.71h3.3c5.98,0,8.04,2.4,8.04,6.46   C265.39,121.72,262.71,123.3,256.67,123.3z"/>
	<path class="st0" d="M283.7,145.77v-45.34h12.57v45.34H283.7z"/>
	<path class="st0" d="M308.86,100.43h12.65v33.16c0,13.33-9.08,18.2-21.73,18.2l-0.36-10.21c6.83,0,9.45-2.97,9.45-10.22V100.43z"/>
</g>
</svg>